<svg id="Layer_1" data-name="Layer 1" xmlns="http://www.w3.org/2000/svg" viewBox="0 0 122.88 121.63"><defs><style>.cls-1,.cls-2{fill-rule:evenodd;}.cls-2{fill:#56b320;}</style></defs><title>security</title><path class="cls-1" d="M55.15,0A150.86,150.86,0,0,0,73.54,10.06a33.21,33.21,0,0,0-4.38,7.21,142.57,142.57,0,0,1-14-7.86c-13.69,10.64-29.44,15.93-46.63,15-1.3,49.52,17.19,77,46.81,87.78,21.19-8,36.46-24.12,43.11-48.78h.76a32.63,32.63,0,0,0,7.51-.87c-7.52,30.05-25.51,49.31-51.38,59.06C19.64,108.59-1.49,76.65.08,17c18.78,1,37.21-3.08,55.07-16.95Z"/><path class="cls-1" d="M40.3,53.09h1.5V49.78a14.28,14.28,0,0,1,3.94-9.88,13.13,13.13,0,0,1,19.18,0,14.25,14.25,0,0,1,4,9.88v3.31h1.49a2.21,2.21,0,0,1,2.21,2.21V78.65a2.22,2.22,0,0,1-2.21,2.21H40.3a2.22,2.22,0,0,1-2.21-2.21V55.3a2.21,2.21,0,0,1,2.21-2.21Zm5.68,0H64.69V49.78a10.07,10.07,0,0,0-2.77-7,9,9,0,0,0-13.17,0,10.07,10.07,0,0,0-2.77,7v3.31ZM53.52,68l-2.38,6.25h8.39l-2.21-6.34a4.34,4.34,0,1,0-3.8.09Z"/><path class="cls-2" d="M99.23,6.92A23.65,23.65,0,1,1,75.58,30.57,23.65,23.65,0,0,1,99.23,6.92ZM93.79,30a18.48,18.48,0,0,1,1.91,1.85,75.71,75.71,0,0,1,6-8.31c6-7.18,3.25-5.79,11.5-5.79L112,19.05a80,80,0,0,0-7.59,10.12,118.45,118.45,0,0,0-7.77,12.91l-.71,1.38-.66-1.4a34,34,0,0,0-4.39-7.12,24.22,24.22,0,0,0-5.58-5.13c1.07-3.53,6.19-1.72,8.48.22Z"/></svg>