<svg xmlns="http://www.w3.org/2000/svg" xmlns:xlink="http://www.w3.org/1999/xlink" width="300" zoomAndPan="magnify" viewBox="0 0 224.87999 56.249996" height="75" preserveAspectRatio="xMidYMid meet" version="1.0"><defs><g/></defs><g fill="#ffffff" fill-opacity="1"><g transform="translate(4.704599, 28.56111)"><g><path d="M 19.03125 -23.765625 L 19.0625 -8.390625 L 17.6875 -6.796875 L 7.578125 -6.46875 L 7.28125 -0.453125 L 0.65625 0.09375 L 0.65625 -26.015625 L 17.75 -25.03125 Z M 12.203125 -19.875 L 7.90625 -20.296875 L 7.734375 -12.34375 L 12.171875 -12.671875 Z M 12.203125 -19.875 "/></g></g></g><g fill="#ffffff" fill-opacity="1"><g transform="translate(24.416292, 28.56111)"><g><path d="M 12.734375 -5.84375 L 18.703125 -5.453125 L 19.03125 -3.09375 L 17.328125 -0.234375 L 2.96875 -0.03125 L 0.8125 -1.3125 L 0.65625 -17 L 2.671875 -19.125 L 16.8125 -18.828125 L 19.265625 -17.171875 L 18.671875 -8.1875 L 16.75 -6.890625 L 7.640625 -7.140625 L 7.546875 -4.96875 L 12.171875 -4.671875 Z M 12.3125 -10.484375 L 12.109375 -13.78125 L 7.40625 -13.96875 L 7.4375 -10.90625 Z M 12.3125 -10.484375 "/></g></g></g><g fill="#ffffff" fill-opacity="1"><g transform="translate(44.323792, 28.56111)"><g><path d="M 15.046875 -19.125 L 19.1875 -19.21875 L 19.0625 6.53125 L 16.96875 8.328125 L 2.546875 8.03125 L 0.953125 5.515625 L 1.171875 2.25 L 1.890625 1.046875 L 7.21875 0.953125 L 7.859375 3.09375 L 12.34375 2.734375 L 12.234375 -0.484375 L 2.96875 -0.03125 L 1.109375 -1.859375 L 0.65625 -16.359375 L 2.96875 -19.09375 L 13.578125 -19.03125 L 14.296875 -18.046875 Z M 7.375 -13.21875 L 7.546875 -5.90625 L 12.140625 -6.140625 L 12.203125 -13.515625 Z M 7.375 -13.21875 "/></g></g></g><g fill="#ffffff" fill-opacity="1"><g transform="translate(64.166026, 28.56111)"><g><path d="M 19.09375 -17.75 L 19.328125 0 L 14.84375 0.03125 L 14.171875 -1.109375 L 13.421875 0 L 3.09375 -0.09375 L 0.65625 -1.890625 L 1.234375 -10.375 L 3.140625 -11.6875 L 12.265625 -11.84375 L 12.375 -14.0625 L 7.734375 -14.390625 L 7.1875 -13.1875 L 1.203125 -13.578125 L 0.875 -15.921875 L 2.578125 -18.796875 L 16.9375 -19 Z M 12.5 -5.09375 L 12.46875 -8.09375 L 7.609375 -8.03125 L 7.796875 -5.28125 Z M 12.5 -5.09375 "/></g></g></g><g fill="#ff1616" fill-opacity="1"><g transform="translate(84.129961, 28.56111)"><g><path d="M 10.046875 -13.734375 L 18.796875 -13.671875 L 18.9375 -2.546875 L 17.71875 -0.234375 L 3 -0.03125 L 0.8125 -1.3125 L 0.65625 -24.34375 L 1.703125 -25.890625 L 17.109375 -26.171875 L 19.09375 -24.546875 L 18.640625 -17.203125 L 12.53125 -17.203125 L 12.078125 -20.65625 L 7.5 -20.4375 L 7.703125 -5.609375 L 12.140625 -5.328125 L 12.265625 -8.421875 L 10.046875 -8.65625 Z M 10.046875 -13.734375 "/></g></g></g><g fill="#ff1616" fill-opacity="1"><g transform="translate(103.874281, 28.56111)"><g><path d="M 17.359375 -18.828125 L 19.0625 -16.71875 L 18.90625 -2.453125 L 17.625 -0.125 L 3 -0.03125 L 0.8125 -1.171875 L 0.65625 -16.9375 L 1.953125 -19.125 Z M 12.140625 -13.671875 L 7.578125 -13.875 L 7.703125 -5.21875 L 12.046875 -4.859375 Z M 12.140625 -13.671875 "/></g></g></g><g fill="#ff1616" fill-opacity="1"><g transform="translate(123.585973, 28.56111)"><g><path d="M 0.71875 -26.046875 L 9.46875 -26.046875 L 8.515625 -0.5625 L 1.796875 0 L 1.921875 -19.96875 L 0.65625 -20.5625 Z M 0.71875 -26.046875 "/></g></g></g><g fill="#ff1616" fill-opacity="1"><g transform="translate(133.702903, 28.56111)"><g><path d="M 19.125 -17.796875 L 19.1875 -1.703125 L 17.796875 -0.0625 L 7.671875 -0.203125 L 7.46875 7.375 L 0.65625 8.390625 L 0.84375 -18.765625 L 5.03125 -18.859375 L 5.578125 -17.859375 L 6.390625 -18.765625 L 17.828125 -19.0625 Z M 8 -13.421875 L 7.859375 -5.15625 L 12.3125 -5.515625 L 12.3125 -12.984375 Z M 8 -13.421875 "/></g></g></g><g fill="#ff1616" fill-opacity="1"><g transform="translate(153.545138, 28.56111)"><g><path d="M 0.65625 -0.0625 L 0.8125 -19.09375 L 7.90625 -19.09375 L 7.015625 -0.390625 Z M 6.140625 -19.75 L 2.578125 -19.6875 L 0.953125 -20.796875 L 1.109375 -26.078125 L 7.28125 -26.078125 L 8.09375 -25.203125 L 7.375 -20.765625 Z M 6.140625 -19.75 "/></g></g></g><g fill="#ff1616" fill-opacity="1"><g transform="translate(162.291386, 28.56111)"><g><path d="M 17.4375 -11.234375 L 18.859375 -8.390625 L 18.609375 -1.53125 L 16.75 -0.15625 L 16.546875 -0.15625 L 2.03125 0 L 0.65625 -1.5 L 1.109375 -6.859375 L 6.5625 -6.828125 L 7.015625 -5.15625 L 12.265625 -5.15625 L 12.40625 -7.609375 L 2.375 -8.453125 L 0.84375 -9.6875 L 1.015625 -17.5 L 2.34375 -18.671875 L 16.03125 -19.09375 L 18.40625 -18.25 L 18.703125 -13.671875 L 17.46875 -12.765625 L 12.953125 -12.59375 L 12.203125 -14.390625 L 7.703125 -14.203125 L 7.34375 -12.046875 Z M 17.4375 -11.234375 "/></g></g></g><g fill="#ff1616" fill-opacity="1"><g transform="translate(181.807261, 28.56111)"><g><path d="M 17.75 -6.75 L 17.75 -2.84375 L 16.09375 -0.203125 L 3.03125 0 L 1.796875 -2.09375 L 1.921875 -14 L 0.6875 -14.296875 L 0.65625 -18.140625 L 1.375 -18.90625 L 2.3125 -18.96875 L 2.671875 -23.671875 L 7.734375 -23.5625 L 8.515625 -22.71875 L 8.484375 -18.96875 L 15.5625 -18.796875 L 16.390625 -17.65625 L 16.328125 -13.875 L 15.46875 -13.25 L 8.578125 -13.453125 L 8.296875 -5.28125 L 11.390625 -5.15625 L 12.140625 -8.1875 L 16.9375 -7.90625 Z M 17.75 -6.75 "/></g></g></g><g fill="#ff1616" fill-opacity="1"><g transform="translate(200.213537, 28.56111)"><g><path d="M 19.09375 -17.75 L 19.328125 0 L 14.84375 0.03125 L 14.171875 -1.109375 L 13.421875 0 L 3.09375 -0.09375 L 0.65625 -1.890625 L 1.234375 -10.375 L 3.140625 -11.6875 L 12.265625 -11.84375 L 12.375 -14.0625 L 7.734375 -14.390625 L 7.1875 -13.1875 L 1.203125 -13.578125 L 0.875 -15.921875 L 2.578125 -18.796875 L 16.9375 -19 Z M 12.5 -5.09375 L 12.46875 -8.09375 L 7.609375 -8.03125 L 7.796875 -5.28125 Z M 12.5 -5.09375 "/></g></g></g><g fill="#ffffff" fill-opacity="1"><g transform="translate(33.271519, 48.599848)"><g><path d="M 6.96875 -6.9375 C 7.75 -6.25 8.140625 -5.289062 8.140625 -4.0625 C 8.140625 -2.84375 7.75 -1.859375 6.96875 -1.109375 C 6.1875 -0.367188 5.160156 0 3.890625 0 L 0.171875 0 L 0.171875 -0.296875 C 0.503906 -0.304688 0.75 -0.375 0.90625 -0.5 C 1.0625 -0.625 1.140625 -0.816406 1.140625 -1.078125 L 1.140625 -6.890625 C 1.140625 -7.160156 1.070312 -7.347656 0.9375 -7.453125 C 0.800781 -7.566406 0.546875 -7.644531 0.171875 -7.6875 L 0.171875 -7.96875 L 3.765625 -7.96875 C 5.117188 -7.96875 6.1875 -7.625 6.96875 -6.9375 Z M 6.09375 -3.890625 C 6.09375 -4.910156 5.929688 -5.738281 5.609375 -6.375 C 5.210938 -7.175781 4.59375 -7.578125 3.75 -7.578125 C 3.289062 -7.578125 3.0625 -7.4375 3.0625 -7.15625 L 3.0625 -1.09375 C 3.0625 -0.832031 3.109375 -0.648438 3.203125 -0.546875 C 3.296875 -0.453125 3.472656 -0.40625 3.734375 -0.40625 C 4.492188 -0.40625 5.070312 -0.679688 5.46875 -1.234375 C 5.882812 -1.804688 6.09375 -2.691406 6.09375 -3.890625 Z M 6.09375 -3.890625 "/></g></g></g><g fill="#ffffff" fill-opacity="1"><g transform="translate(41.43775, 48.599848)"><g><path d="M 5.03125 -1.3125 C 4.644531 -0.757812 4.28125 -0.375 3.9375 -0.15625 C 3.601562 0.0625 3.195312 0.171875 2.71875 0.171875 C 1.988281 0.171875 1.398438 -0.0859375 0.953125 -0.609375 C 0.515625 -1.140625 0.296875 -1.832031 0.296875 -2.6875 C 0.296875 -3.550781 0.519531 -4.25 0.96875 -4.78125 C 1.425781 -5.3125 2.023438 -5.578125 2.765625 -5.578125 C 3.441406 -5.578125 3.972656 -5.34375 4.359375 -4.875 C 4.703125 -4.4375 4.90625 -3.773438 4.96875 -2.890625 L 2 -2.890625 C 2.03125 -2.160156 2.148438 -1.625 2.359375 -1.28125 C 2.597656 -0.882812 2.941406 -0.6875 3.390625 -0.6875 C 3.648438 -0.6875 3.878906 -0.742188 4.078125 -0.859375 C 4.273438 -0.972656 4.5 -1.175781 4.75 -1.46875 Z M 3.515625 -3.328125 L 3.515625 -3.5 C 3.492188 -4.09375 3.457031 -4.476562 3.40625 -4.65625 C 3.3125 -5.03125 3.097656 -5.21875 2.765625 -5.21875 C 2.472656 -5.21875 2.265625 -5.078125 2.140625 -4.796875 C 2.015625 -4.523438 1.945312 -4.035156 1.9375 -3.328125 Z M 3.515625 -3.328125 "/></g></g></g><g fill="#ffffff" fill-opacity="1"><g transform="translate(46.327958, 48.599848)"><g><path d="M 6.359375 0 L 3.59375 0 L 3.59375 -0.28125 C 3.78125 -0.300781 3.914062 -0.363281 4 -0.46875 C 4.09375 -0.570312 4.140625 -0.734375 4.140625 -0.953125 L 4.140625 -3.8125 C 4.140625 -4.46875 3.9375 -4.796875 3.53125 -4.796875 C 3.25 -4.796875 2.976562 -4.65625 2.71875 -4.375 C 2.582031 -4.257812 2.515625 -4.171875 2.515625 -4.109375 L 2.515625 -0.953125 C 2.515625 -0.734375 2.554688 -0.570312 2.640625 -0.46875 C 2.722656 -0.375 2.875 -0.3125 3.09375 -0.28125 L 3.09375 0 L 0.25 0 L 0.25 -0.28125 C 0.519531 -0.332031 0.691406 -0.398438 0.765625 -0.484375 C 0.835938 -0.578125 0.875 -0.742188 0.875 -0.984375 L 0.875 -4.453125 C 0.875 -4.703125 0.832031 -4.867188 0.75 -4.953125 C 0.675781 -5.046875 0.507812 -5.113281 0.25 -5.15625 L 0.25 -5.4375 L 2.5 -5.4375 L 2.5 -4.546875 C 2.9375 -5.234375 3.5 -5.578125 4.1875 -5.578125 C 4.675781 -5.578125 5.0625 -5.425781 5.34375 -5.125 C 5.632812 -4.820312 5.78125 -4.421875 5.78125 -3.921875 L 5.78125 -0.953125 C 5.78125 -0.703125 5.816406 -0.53125 5.890625 -0.4375 C 5.972656 -0.351562 6.128906 -0.300781 6.359375 -0.28125 Z M 6.359375 0 "/></g></g></g><g fill="#ffffff" fill-opacity="1"><g transform="translate(52.538005, 48.599848)"><g><path d="M 6.328125 -0.234375 L 5.609375 -0.15625 C 4.953125 -0.0820312 4.429688 0.0195312 4.046875 0.15625 L 4.046875 -0.609375 C 3.703125 -0.316406 3.40625 -0.113281 3.15625 0 C 2.914062 0.113281 2.640625 0.171875 2.328125 0.171875 C 1.847656 0.171875 1.46875 0.0234375 1.1875 -0.265625 C 0.90625 -0.554688 0.765625 -0.960938 0.765625 -1.484375 L 0.765625 -4.453125 C 0.765625 -4.703125 0.726562 -4.867188 0.65625 -4.953125 C 0.582031 -5.035156 0.425781 -5.101562 0.1875 -5.15625 L 0.1875 -5.4375 L 2.40625 -5.4375 L 2.40625 -1.4375 C 2.40625 -1.132812 2.453125 -0.921875 2.546875 -0.796875 C 2.648438 -0.671875 2.820312 -0.609375 3.0625 -0.609375 C 3.363281 -0.609375 3.6875 -0.78125 4.03125 -1.125 L 4.03125 -4.453125 C 4.03125 -4.710938 3.976562 -4.890625 3.875 -4.984375 C 3.78125 -5.078125 3.585938 -5.132812 3.296875 -5.15625 L 3.296875 -5.4375 L 5.671875 -5.4375 L 5.671875 -1.1875 C 5.671875 -0.9375 5.71875 -0.757812 5.8125 -0.65625 C 5.90625 -0.5625 6.078125 -0.507812 6.328125 -0.5 Z M 5.078125 -7.765625 C 5.078125 -7.628906 5.046875 -7.519531 4.984375 -7.4375 C 4.921875 -7.351562 4.796875 -7.253906 4.609375 -7.140625 L 2.9375 -6.09375 L 2.28125 -6.09375 L 3.890625 -7.953125 C 4.085938 -8.171875 4.296875 -8.28125 4.515625 -8.28125 C 4.691406 -8.28125 4.828125 -8.234375 4.921875 -8.140625 C 5.023438 -8.046875 5.078125 -7.921875 5.078125 -7.765625 Z M 5.078125 -7.765625 "/></g></g></g><g fill="#ffffff" fill-opacity="1"><g transform="translate(58.748053, 48.599848)"><g><path d="M 6.359375 0 L 3.59375 0 L 3.59375 -0.28125 C 3.78125 -0.300781 3.914062 -0.363281 4 -0.46875 C 4.09375 -0.570312 4.140625 -0.734375 4.140625 -0.953125 L 4.140625 -3.8125 C 4.140625 -4.46875 3.9375 -4.796875 3.53125 -4.796875 C 3.25 -4.796875 2.976562 -4.65625 2.71875 -4.375 C 2.582031 -4.257812 2.515625 -4.171875 2.515625 -4.109375 L 2.515625 -0.953125 C 2.515625 -0.734375 2.554688 -0.570312 2.640625 -0.46875 C 2.722656 -0.375 2.875 -0.3125 3.09375 -0.28125 L 3.09375 0 L 0.25 0 L 0.25 -0.28125 C 0.519531 -0.332031 0.691406 -0.398438 0.765625 -0.484375 C 0.835938 -0.578125 0.875 -0.742188 0.875 -0.984375 L 0.875 -4.453125 C 0.875 -4.703125 0.832031 -4.867188 0.75 -4.953125 C 0.675781 -5.046875 0.507812 -5.113281 0.25 -5.15625 L 0.25 -5.4375 L 2.5 -5.4375 L 2.5 -4.546875 C 2.9375 -5.234375 3.5 -5.578125 4.1875 -5.578125 C 4.675781 -5.578125 5.0625 -5.425781 5.34375 -5.125 C 5.632812 -4.820312 5.78125 -4.421875 5.78125 -3.921875 L 5.78125 -0.953125 C 5.78125 -0.703125 5.816406 -0.53125 5.890625 -0.4375 C 5.972656 -0.351562 6.128906 -0.300781 6.359375 -0.28125 Z M 6.359375 0 "/></g></g></g><g fill="#ffffff" fill-opacity="1"><g transform="translate(64.9581, 48.599848)"><g><path d="M 5.078125 -1.078125 C 4.722656 -0.628906 4.367188 -0.304688 4.015625 -0.109375 C 3.671875 0.078125 3.269531 0.171875 2.8125 0.171875 C 2.070312 0.171875 1.46875 -0.0859375 1 -0.609375 C 0.53125 -1.140625 0.296875 -1.8125 0.296875 -2.625 C 0.296875 -3.488281 0.554688 -4.195312 1.078125 -4.75 C 1.609375 -5.300781 2.28125 -5.578125 3.09375 -5.578125 C 3.601562 -5.578125 4.03125 -5.453125 4.375 -5.203125 C 4.726562 -4.960938 4.90625 -4.65625 4.90625 -4.28125 C 4.90625 -4.050781 4.832031 -3.867188 4.6875 -3.734375 C 4.550781 -3.609375 4.359375 -3.546875 4.109375 -3.546875 C 3.671875 -3.546875 3.445312 -3.828125 3.4375 -4.390625 C 3.4375 -4.722656 3.421875 -4.921875 3.390625 -4.984375 C 3.304688 -5.140625 3.160156 -5.21875 2.953125 -5.21875 C 2.640625 -5.21875 2.394531 -5.039062 2.21875 -4.6875 C 2.039062 -4.34375 1.953125 -3.863281 1.953125 -3.25 C 1.953125 -2.445312 2.101562 -1.804688 2.40625 -1.328125 C 2.707031 -0.859375 3.117188 -0.625 3.640625 -0.625 C 3.878906 -0.625 4.085938 -0.671875 4.265625 -0.765625 C 4.441406 -0.867188 4.640625 -1.039062 4.859375 -1.28125 Z M 5.078125 -1.078125 "/></g></g></g><g fill="#ffffff" fill-opacity="1"><g transform="translate(69.848309, 48.599848)"><g><path d="M 3.015625 0 L 0.1875 0 L 0.1875 -0.28125 C 0.457031 -0.34375 0.628906 -0.414062 0.703125 -0.5 C 0.773438 -0.582031 0.8125 -0.742188 0.8125 -0.984375 L 0.8125 -4.453125 C 0.8125 -4.703125 0.769531 -4.867188 0.6875 -4.953125 C 0.613281 -5.035156 0.445312 -5.101562 0.1875 -5.15625 L 0.1875 -5.4375 L 2.453125 -5.4375 L 2.453125 -0.953125 C 2.453125 -0.734375 2.492188 -0.570312 2.578125 -0.46875 C 2.660156 -0.375 2.804688 -0.3125 3.015625 -0.28125 Z M 2.265625 -7.84375 C 2.441406 -7.664062 2.53125 -7.445312 2.53125 -7.1875 C 2.53125 -6.9375 2.441406 -6.722656 2.265625 -6.546875 C 2.085938 -6.367188 1.867188 -6.28125 1.609375 -6.28125 C 1.359375 -6.28125 1.144531 -6.367188 0.96875 -6.546875 C 0.789062 -6.722656 0.703125 -6.9375 0.703125 -7.1875 C 0.703125 -7.445312 0.789062 -7.664062 0.96875 -7.84375 C 1.144531 -8.019531 1.359375 -8.109375 1.609375 -8.109375 C 1.867188 -8.109375 2.085938 -8.019531 2.265625 -7.84375 Z M 2.265625 -7.84375 "/></g></g></g><g fill="#ffffff" fill-opacity="1"><g transform="translate(72.782334, 48.599848)"><g><path d="M 5.75 -0.5 C 5.332031 -0.0507812 4.894531 0.171875 4.4375 0.171875 C 4.144531 0.171875 3.925781 0.109375 3.78125 -0.015625 C 3.632812 -0.148438 3.53125 -0.363281 3.46875 -0.65625 C 2.863281 -0.101562 2.238281 0.171875 1.59375 0.171875 C 1.21875 0.171875 0.90625 0.0507812 0.65625 -0.1875 C 0.414062 -0.425781 0.296875 -0.722656 0.296875 -1.078125 C 0.296875 -1.585938 0.554688 -2.019531 1.078125 -2.375 C 1.460938 -2.625 2.257812 -2.929688 3.46875 -3.296875 L 3.46875 -4.171875 C 3.46875 -4.523438 3.390625 -4.785156 3.234375 -4.953125 C 3.078125 -5.117188 2.828125 -5.203125 2.484375 -5.203125 C 2.265625 -5.203125 2.082031 -5.160156 1.9375 -5.078125 C 1.800781 -4.992188 1.734375 -4.890625 1.734375 -4.765625 C 1.734375 -4.691406 1.78125 -4.601562 1.875 -4.5 C 2.019531 -4.332031 2.09375 -4.164062 2.09375 -4 C 2.09375 -3.789062 2.015625 -3.625 1.859375 -3.5 C 1.710938 -3.375 1.519531 -3.3125 1.28125 -3.3125 C 1.039062 -3.3125 0.851562 -3.378906 0.71875 -3.515625 C 0.582031 -3.660156 0.515625 -3.851562 0.515625 -4.09375 C 0.515625 -4.53125 0.71875 -4.882812 1.125 -5.15625 C 1.539062 -5.4375 2.082031 -5.578125 2.75 -5.578125 C 3.46875 -5.578125 4.035156 -5.429688 4.453125 -5.140625 C 4.867188 -4.859375 5.078125 -4.46875 5.078125 -3.96875 L 5.078125 -0.890625 C 5.078125 -0.691406 5.160156 -0.59375 5.328125 -0.59375 C 5.390625 -0.59375 5.4375 -0.609375 5.46875 -0.640625 L 5.578125 -0.75 Z M 3.453125 -1.1875 L 3.453125 -2.890625 C 2.492188 -2.617188 2.015625 -2.144531 2.015625 -1.46875 C 2.015625 -1.226562 2.066406 -1.035156 2.171875 -0.890625 C 2.285156 -0.742188 2.4375 -0.671875 2.625 -0.671875 C 2.882812 -0.671875 3.160156 -0.84375 3.453125 -1.1875 Z M 3.453125 -1.1875 "/></g></g></g><g fill="#ffffff" fill-opacity="1"><g transform="translate(78.332468, 48.599848)"><g/></g></g><g fill="#ffffff" fill-opacity="1"><g transform="translate(80.936531, 48.599848)"><g><path d="M 9.28125 -1.3125 L 9.09375 -1 C 8.84375 -0.59375 8.628906 -0.316406 8.453125 -0.171875 C 8.128906 0.0664062 7.765625 0.1875 7.359375 0.1875 C 7.046875 0.1875 6.765625 0.113281 6.515625 -0.03125 C 6.265625 -0.1875 5.960938 -0.457031 5.609375 -0.84375 C 4.679688 -0.164062 3.804688 0.171875 2.984375 0.171875 C 2.328125 0.171875 1.785156 -0.0195312 1.359375 -0.40625 C 0.941406 -0.789062 0.734375 -1.289062 0.734375 -1.90625 C 0.734375 -2.457031 0.910156 -2.9375 1.265625 -3.34375 C 1.617188 -3.757812 2.210938 -4.171875 3.046875 -4.578125 C 2.804688 -4.984375 2.644531 -5.304688 2.5625 -5.546875 C 2.476562 -5.785156 2.4375 -6.03125 2.4375 -6.28125 C 2.4375 -6.863281 2.640625 -7.320312 3.046875 -7.65625 C 3.460938 -7.988281 4.023438 -8.15625 4.734375 -8.15625 C 5.328125 -8.15625 5.800781 -8.019531 6.15625 -7.75 C 6.519531 -7.488281 6.703125 -7.144531 6.703125 -6.71875 C 6.703125 -6.34375 6.554688 -6.015625 6.265625 -5.734375 C 5.984375 -5.460938 5.53125 -5.210938 4.90625 -4.984375 L 6.6875 -2.46875 C 7.03125 -2.894531 7.265625 -3.226562 7.390625 -3.46875 C 7.515625 -3.707031 7.578125 -3.941406 7.578125 -4.171875 C 7.578125 -4.347656 7.535156 -4.460938 7.453125 -4.515625 C 7.367188 -4.566406 7.15625 -4.613281 6.8125 -4.65625 L 6.8125 -4.9375 L 9.234375 -4.9375 L 9.234375 -4.65625 C 8.984375 -4.632812 8.804688 -4.59375 8.703125 -4.53125 C 8.597656 -4.476562 8.488281 -4.363281 8.375 -4.1875 L 8.0625 -3.671875 C 7.8125 -3.285156 7.441406 -2.753906 6.953125 -2.078125 C 7.285156 -1.648438 7.546875 -1.363281 7.734375 -1.21875 C 7.921875 -1.070312 8.128906 -1 8.359375 -1 C 8.628906 -1 8.859375 -1.148438 9.046875 -1.453125 Z M 5.328125 -1.1875 C 5.035156 -1.5625 4.53125 -2.289062 3.8125 -3.375 L 3.25 -4.21875 C 2.925781 -4.03125 2.695312 -3.851562 2.5625 -3.6875 C 2.4375 -3.519531 2.375 -3.328125 2.375 -3.109375 C 2.375 -2.804688 2.453125 -2.476562 2.609375 -2.125 C 2.765625 -1.78125 2.96875 -1.476562 3.21875 -1.21875 C 3.53125 -0.882812 3.878906 -0.71875 4.265625 -0.71875 C 4.546875 -0.71875 4.898438 -0.875 5.328125 -1.1875 Z M 5.515625 -6.28125 C 5.515625 -6.675781 5.40625 -7.019531 5.1875 -7.3125 C 4.96875 -7.613281 4.710938 -7.765625 4.421875 -7.765625 C 4.234375 -7.765625 4.082031 -7.703125 3.96875 -7.578125 C 3.863281 -7.460938 3.8125 -7.304688 3.8125 -7.109375 C 3.8125 -6.648438 4.101562 -6.054688 4.6875 -5.328125 C 4.976562 -5.429688 5.1875 -5.554688 5.3125 -5.703125 C 5.445312 -5.847656 5.515625 -6.039062 5.515625 -6.28125 Z M 5.515625 -6.28125 "/></g></g></g><g fill="#ffffff" fill-opacity="1"><g transform="translate(90.41081, 48.599848)"><g/></g></g><g fill="#ffffff" fill-opacity="1"><g transform="translate(93.014873, 48.599848)"><g><path d="M 7.078125 -5.828125 C 7.078125 -5.367188 6.945312 -4.96875 6.6875 -4.625 C 6.4375 -4.28125 6.078125 -4.015625 5.609375 -3.828125 C 5.347656 -3.734375 5.0625 -3.671875 4.75 -3.640625 C 4.445312 -3.609375 3.894531 -3.585938 3.09375 -3.578125 L 3.09375 -1.375 C 3.09375 -0.945312 3.148438 -0.675781 3.265625 -0.5625 C 3.378906 -0.445312 3.664062 -0.359375 4.125 -0.296875 L 4.125 0 L 0.1875 0 L 0.1875 -0.296875 C 0.363281 -0.328125 0.457031 -0.34375 0.46875 -0.34375 C 0.75 -0.375 0.9375 -0.460938 1.03125 -0.609375 C 1.132812 -0.753906 1.1875 -1.007812 1.1875 -1.375 L 1.1875 -6.59375 C 1.1875 -7.007812 1.117188 -7.285156 0.984375 -7.421875 C 0.859375 -7.554688 0.59375 -7.644531 0.1875 -7.6875 L 0.1875 -7.96875 L 3.984375 -7.96875 C 4.972656 -7.96875 5.734375 -7.78125 6.265625 -7.40625 C 6.804688 -7.039062 7.078125 -6.515625 7.078125 -5.828125 Z M 5.046875 -5.765625 C 5.046875 -6.398438 4.9375 -6.859375 4.71875 -7.140625 C 4.507812 -7.421875 4.164062 -7.5625 3.6875 -7.5625 C 3.289062 -7.5625 3.09375 -7.425781 3.09375 -7.15625 L 3.09375 -3.984375 C 3.84375 -3.984375 4.34375 -4.09375 4.59375 -4.3125 C 4.894531 -4.570312 5.046875 -5.054688 5.046875 -5.765625 Z M 5.046875 -5.765625 "/></g></g></g><g fill="#ffffff" fill-opacity="1"><g transform="translate(99.873055, 48.599848)"><g><path d="M 5.125 -4.65625 C 5.125 -4.425781 5.050781 -4.238281 4.90625 -4.09375 C 4.769531 -3.945312 4.59375 -3.875 4.375 -3.875 C 4.101562 -3.875 3.867188 -4.015625 3.671875 -4.296875 C 3.546875 -4.472656 3.4375 -4.5625 3.34375 -4.5625 C 3.144531 -4.5625 2.972656 -4.453125 2.828125 -4.234375 C 2.691406 -4.015625 2.625 -3.75 2.625 -3.4375 L 2.625 -1.21875 C 2.625 -0.84375 2.675781 -0.597656 2.78125 -0.484375 C 2.882812 -0.367188 3.117188 -0.300781 3.484375 -0.28125 L 3.484375 0 L 0.34375 0 L 0.34375 -0.28125 C 0.601562 -0.332031 0.773438 -0.398438 0.859375 -0.484375 C 0.941406 -0.578125 0.984375 -0.742188 0.984375 -0.984375 L 0.984375 -4.453125 C 0.984375 -4.691406 0.9375 -4.859375 0.84375 -4.953125 C 0.757812 -5.054688 0.59375 -5.125 0.34375 -5.15625 L 0.34375 -5.4375 L 2.578125 -5.4375 L 2.578125 -4.46875 C 2.847656 -4.863281 3.109375 -5.144531 3.359375 -5.3125 C 3.609375 -5.488281 3.878906 -5.578125 4.171875 -5.578125 C 4.441406 -5.578125 4.664062 -5.488281 4.84375 -5.3125 C 5.03125 -5.144531 5.125 -4.925781 5.125 -4.65625 Z M 5.125 -4.65625 "/></g></g></g><g fill="#ffffff" fill-opacity="1"><g transform="translate(104.763263, 48.599848)"><g><path d="M 5.03125 -1.3125 C 4.644531 -0.757812 4.28125 -0.375 3.9375 -0.15625 C 3.601562 0.0625 3.195312 0.171875 2.71875 0.171875 C 1.988281 0.171875 1.398438 -0.0859375 0.953125 -0.609375 C 0.515625 -1.140625 0.296875 -1.832031 0.296875 -2.6875 C 0.296875 -3.550781 0.519531 -4.25 0.96875 -4.78125 C 1.425781 -5.3125 2.023438 -5.578125 2.765625 -5.578125 C 3.441406 -5.578125 3.972656 -5.34375 4.359375 -4.875 C 4.703125 -4.4375 4.90625 -3.773438 4.96875 -2.890625 L 2 -2.890625 C 2.03125 -2.160156 2.148438 -1.625 2.359375 -1.28125 C 2.597656 -0.882812 2.941406 -0.6875 3.390625 -0.6875 C 3.648438 -0.6875 3.878906 -0.742188 4.078125 -0.859375 C 4.273438 -0.972656 4.5 -1.175781 4.75 -1.46875 Z M 3.515625 -3.328125 L 3.515625 -3.5 C 3.492188 -4.09375 3.457031 -4.476562 3.40625 -4.65625 C 3.3125 -5.03125 3.097656 -5.21875 2.765625 -5.21875 C 2.472656 -5.21875 2.265625 -5.078125 2.140625 -4.796875 C 2.015625 -4.523438 1.945312 -4.035156 1.9375 -3.328125 Z M 3.515625 -3.328125 "/></g></g></g><g fill="#ffffff" fill-opacity="1"><g transform="translate(109.653472, 48.599848)"><g><path d="M 5.71875 -5.15625 C 5.539062 -5.132812 5.410156 -5.082031 5.328125 -5 C 5.242188 -4.925781 5.144531 -4.757812 5.03125 -4.5 L 3.15625 0.171875 L 2.84375 0.171875 L 1.421875 -3.328125 C 1.191406 -3.921875 0.953125 -4.453125 0.703125 -4.921875 C 0.671875 -4.960938 0.65625 -4.984375 0.65625 -4.984375 C 0.59375 -5.066406 0.457031 -5.125 0.25 -5.15625 L 0.25 -5.4375 L 3.203125 -5.4375 L 3.203125 -5.15625 L 2.984375 -5.125 C 2.710938 -5.101562 2.578125 -5.007812 2.578125 -4.84375 C 2.578125 -4.789062 2.609375 -4.671875 2.671875 -4.484375 L 3.609375 -2.09375 L 4.453125 -4.234375 C 4.546875 -4.453125 4.59375 -4.628906 4.59375 -4.765625 C 4.59375 -4.910156 4.546875 -5.003906 4.453125 -5.046875 C 4.359375 -5.097656 4.1875 -5.132812 3.9375 -5.15625 L 3.9375 -5.4375 L 5.71875 -5.4375 Z M 5.71875 -5.15625 "/></g></g></g><g fill="#ffffff" fill-opacity="1"><g transform="translate(115.203606, 48.599848)"><g><path d="M 5.03125 -1.3125 C 4.644531 -0.757812 4.28125 -0.375 3.9375 -0.15625 C 3.601562 0.0625 3.195312 0.171875 2.71875 0.171875 C 1.988281 0.171875 1.398438 -0.0859375 0.953125 -0.609375 C 0.515625 -1.140625 0.296875 -1.832031 0.296875 -2.6875 C 0.296875 -3.550781 0.519531 -4.25 0.96875 -4.78125 C 1.425781 -5.3125 2.023438 -5.578125 2.765625 -5.578125 C 3.441406 -5.578125 3.972656 -5.34375 4.359375 -4.875 C 4.703125 -4.4375 4.90625 -3.773438 4.96875 -2.890625 L 2 -2.890625 C 2.03125 -2.160156 2.148438 -1.625 2.359375 -1.28125 C 2.597656 -0.882812 2.941406 -0.6875 3.390625 -0.6875 C 3.648438 -0.6875 3.878906 -0.742188 4.078125 -0.859375 C 4.273438 -0.972656 4.5 -1.175781 4.75 -1.46875 Z M 3.515625 -3.328125 L 3.515625 -3.5 C 3.492188 -4.09375 3.457031 -4.476562 3.40625 -4.65625 C 3.3125 -5.03125 3.097656 -5.21875 2.765625 -5.21875 C 2.472656 -5.21875 2.265625 -5.078125 2.140625 -4.796875 C 2.015625 -4.523438 1.945312 -4.035156 1.9375 -3.328125 Z M 3.515625 -3.328125 "/></g></g></g><g fill="#ffffff" fill-opacity="1"><g transform="translate(120.093814, 48.599848)"><g><path d="M 6.359375 0 L 3.59375 0 L 3.59375 -0.28125 C 3.78125 -0.300781 3.914062 -0.363281 4 -0.46875 C 4.09375 -0.570312 4.140625 -0.734375 4.140625 -0.953125 L 4.140625 -3.8125 C 4.140625 -4.46875 3.9375 -4.796875 3.53125 -4.796875 C 3.25 -4.796875 2.976562 -4.65625 2.71875 -4.375 C 2.582031 -4.257812 2.515625 -4.171875 2.515625 -4.109375 L 2.515625 -0.953125 C 2.515625 -0.734375 2.554688 -0.570312 2.640625 -0.46875 C 2.722656 -0.375 2.875 -0.3125 3.09375 -0.28125 L 3.09375 0 L 0.25 0 L 0.25 -0.28125 C 0.519531 -0.332031 0.691406 -0.398438 0.765625 -0.484375 C 0.835938 -0.578125 0.875 -0.742188 0.875 -0.984375 L 0.875 -4.453125 C 0.875 -4.703125 0.832031 -4.867188 0.75 -4.953125 C 0.675781 -5.046875 0.507812 -5.113281 0.25 -5.15625 L 0.25 -5.4375 L 2.5 -5.4375 L 2.5 -4.546875 C 2.9375 -5.234375 3.5 -5.578125 4.1875 -5.578125 C 4.675781 -5.578125 5.0625 -5.425781 5.34375 -5.125 C 5.632812 -4.820312 5.78125 -4.421875 5.78125 -3.921875 L 5.78125 -0.953125 C 5.78125 -0.703125 5.816406 -0.53125 5.890625 -0.4375 C 5.972656 -0.351562 6.128906 -0.300781 6.359375 -0.28125 Z M 6.359375 0 "/></g></g></g><g fill="#ffffff" fill-opacity="1"><g transform="translate(126.303862, 48.599848)"><g><path d="M 5.078125 -1.078125 C 4.546875 -0.367188 3.894531 0.0390625 3.125 0.15625 L 2.859375 0.75 C 2.972656 0.71875 3.097656 0.703125 3.234375 0.703125 C 3.566406 0.703125 3.820312 0.769531 4 0.90625 C 4.1875 1.050781 4.28125 1.253906 4.28125 1.515625 C 4.28125 1.835938 4.140625 2.09375 3.859375 2.28125 C 3.585938 2.476562 3.222656 2.578125 2.765625 2.578125 C 2.398438 2.578125 2.015625 2.503906 1.609375 2.359375 L 1.8125 1.921875 L 1.875 1.953125 C 2.113281 2.046875 2.320312 2.09375 2.5 2.09375 C 2.957031 2.09375 3.1875 1.929688 3.1875 1.609375 C 3.1875 1.328125 3.003906 1.1875 2.640625 1.1875 C 2.535156 1.1875 2.425781 1.203125 2.3125 1.234375 L 2.1875 1.125 L 2.625 0.15625 C 1.914062 0.09375 1.347656 -0.191406 0.921875 -0.703125 C 0.503906 -1.210938 0.296875 -1.851562 0.296875 -2.625 C 0.296875 -3.488281 0.554688 -4.195312 1.078125 -4.75 C 1.609375 -5.300781 2.28125 -5.578125 3.09375 -5.578125 C 3.601562 -5.578125 4.03125 -5.453125 4.375 -5.203125 C 4.726562 -4.960938 4.90625 -4.65625 4.90625 -4.28125 C 4.90625 -4.050781 4.832031 -3.867188 4.6875 -3.734375 C 4.550781 -3.609375 4.359375 -3.546875 4.109375 -3.546875 C 3.671875 -3.546875 3.445312 -3.828125 3.4375 -4.390625 C 3.4375 -4.722656 3.421875 -4.921875 3.390625 -4.984375 C 3.304688 -5.140625 3.160156 -5.21875 2.953125 -5.21875 C 2.640625 -5.21875 2.394531 -5.039062 2.21875 -4.6875 C 2.039062 -4.34375 1.953125 -3.863281 1.953125 -3.25 C 1.953125 -2.445312 2.101562 -1.804688 2.40625 -1.328125 C 2.707031 -0.859375 3.117188 -0.625 3.640625 -0.625 C 3.878906 -0.625 4.085938 -0.671875 4.265625 -0.765625 C 4.441406 -0.867188 4.640625 -1.039062 4.859375 -1.28125 Z M 5.078125 -1.078125 "/></g></g></g><g fill="#ffffff" fill-opacity="1"><g transform="translate(131.19407, 48.599848)"><g><path d="M 5.75 -0.5 C 5.332031 -0.0507812 4.894531 0.171875 4.4375 0.171875 C 4.144531 0.171875 3.925781 0.109375 3.78125 -0.015625 C 3.632812 -0.148438 3.53125 -0.363281 3.46875 -0.65625 C 2.863281 -0.101562 2.238281 0.171875 1.59375 0.171875 C 1.21875 0.171875 0.90625 0.0507812 0.65625 -0.1875 C 0.414062 -0.425781 0.296875 -0.722656 0.296875 -1.078125 C 0.296875 -1.585938 0.554688 -2.019531 1.078125 -2.375 C 1.460938 -2.625 2.257812 -2.929688 3.46875 -3.296875 L 3.46875 -4.171875 C 3.46875 -4.523438 3.390625 -4.785156 3.234375 -4.953125 C 3.078125 -5.117188 2.828125 -5.203125 2.484375 -5.203125 C 2.265625 -5.203125 2.082031 -5.160156 1.9375 -5.078125 C 1.800781 -4.992188 1.734375 -4.890625 1.734375 -4.765625 C 1.734375 -4.691406 1.78125 -4.601562 1.875 -4.5 C 2.019531 -4.332031 2.09375 -4.164062 2.09375 -4 C 2.09375 -3.789062 2.015625 -3.625 1.859375 -3.5 C 1.710938 -3.375 1.519531 -3.3125 1.28125 -3.3125 C 1.039062 -3.3125 0.851562 -3.378906 0.71875 -3.515625 C 0.582031 -3.660156 0.515625 -3.851562 0.515625 -4.09375 C 0.515625 -4.53125 0.71875 -4.882812 1.125 -5.15625 C 1.539062 -5.4375 2.082031 -5.578125 2.75 -5.578125 C 3.46875 -5.578125 4.035156 -5.429688 4.453125 -5.140625 C 4.867188 -4.859375 5.078125 -4.46875 5.078125 -3.96875 L 5.078125 -0.890625 C 5.078125 -0.691406 5.160156 -0.59375 5.328125 -0.59375 C 5.390625 -0.59375 5.4375 -0.609375 5.46875 -0.640625 L 5.578125 -0.75 Z M 3.453125 -1.1875 L 3.453125 -2.890625 C 2.492188 -2.617188 2.015625 -2.144531 2.015625 -1.46875 C 2.015625 -1.226562 2.066406 -1.035156 2.171875 -0.890625 C 2.285156 -0.742188 2.4375 -0.671875 2.625 -0.671875 C 2.882812 -0.671875 3.160156 -0.84375 3.453125 -1.1875 Z M 4.90625 -7.953125 C 4.632812 -6.953125 4.175781 -6.453125 3.53125 -6.453125 C 3.28125 -6.453125 3.023438 -6.507812 2.765625 -6.625 L 2.4375 -6.765625 C 2.039062 -6.941406 1.785156 -7.03125 1.671875 -7.03125 C 1.523438 -7.03125 1.394531 -6.976562 1.28125 -6.875 C 1.175781 -6.769531 1.113281 -6.632812 1.09375 -6.46875 L 0.609375 -6.46875 C 0.710938 -6.988281 0.875 -7.363281 1.09375 -7.59375 C 1.3125 -7.832031 1.601562 -7.953125 1.96875 -7.953125 C 2.21875 -7.953125 2.503906 -7.878906 2.828125 -7.734375 L 3.296875 -7.515625 C 3.503906 -7.421875 3.660156 -7.375 3.765625 -7.375 C 3.921875 -7.375 4.046875 -7.414062 4.140625 -7.5 C 4.234375 -7.582031 4.320312 -7.734375 4.40625 -7.953125 Z M 4.90625 -7.953125 "/></g></g></g><g fill="#ffffff" fill-opacity="1"><g transform="translate(136.744198, 48.599848)"><g><path d="M 5.609375 -2.703125 C 5.609375 -1.878906 5.359375 -1.191406 4.859375 -0.640625 C 4.359375 -0.0976562 3.726562 0.171875 2.96875 0.171875 C 2.195312 0.171875 1.554688 -0.0976562 1.046875 -0.640625 C 0.546875 -1.191406 0.296875 -1.890625 0.296875 -2.734375 C 0.296875 -3.535156 0.550781 -4.207031 1.0625 -4.75 C 1.582031 -5.300781 2.21875 -5.578125 2.96875 -5.578125 C 3.726562 -5.578125 4.359375 -5.300781 4.859375 -4.75 C 5.359375 -4.207031 5.609375 -3.523438 5.609375 -2.703125 Z M 3.875 -2.625 C 3.875 -3.59375 3.804688 -4.265625 3.671875 -4.640625 C 3.546875 -5.023438 3.3125 -5.21875 2.96875 -5.21875 C 2.613281 -5.21875 2.367188 -5.023438 2.234375 -4.640625 C 2.097656 -4.265625 2.03125 -3.5625 2.03125 -2.53125 C 2.03125 -1.664062 2.097656 -1.0625 2.234375 -0.71875 C 2.367188 -0.375 2.609375 -0.203125 2.953125 -0.203125 C 3.304688 -0.203125 3.546875 -0.378906 3.671875 -0.734375 C 3.804688 -1.097656 3.875 -1.726562 3.875 -2.625 Z M 3.875 -2.625 "/></g></g></g><g fill="#ffffff" fill-opacity="1"><g transform="translate(142.294326, 48.599848)"><g/></g></g><g fill="#ffffff" fill-opacity="1"><g transform="translate(144.898384, 48.599848)"><g><path d="M 6.296875 -0.234375 L 5.5625 -0.140625 C 4.976562 -0.078125 4.457031 0.0195312 4 0.15625 L 4 -0.609375 C 3.726562 -0.316406 3.476562 -0.113281 3.25 0 C 3.019531 0.113281 2.75 0.171875 2.4375 0.171875 C 1.8125 0.171875 1.296875 -0.0859375 0.890625 -0.609375 C 0.492188 -1.140625 0.296875 -1.804688 0.296875 -2.609375 C 0.296875 -3.460938 0.507812 -4.171875 0.9375 -4.734375 C 1.363281 -5.296875 1.90625 -5.578125 2.5625 -5.578125 C 2.832031 -5.578125 3.070312 -5.523438 3.28125 -5.421875 C 3.488281 -5.316406 3.71875 -5.125 3.96875 -4.84375 L 3.96875 -7 C 3.96875 -7.28125 3.914062 -7.457031 3.8125 -7.53125 C 3.707031 -7.601562 3.457031 -7.65625 3.0625 -7.6875 L 3.0625 -7.96875 L 5.609375 -7.96875 L 5.609375 -1.1875 C 5.609375 -0.9375 5.65625 -0.765625 5.75 -0.671875 C 5.851562 -0.578125 6.035156 -0.519531 6.296875 -0.5 Z M 3.96875 -1.328125 L 3.96875 -4.1875 C 3.882812 -4.40625 3.757812 -4.582031 3.59375 -4.71875 C 3.425781 -4.851562 3.242188 -4.921875 3.046875 -4.921875 C 2.378906 -4.921875 2.046875 -4.179688 2.046875 -2.703125 C 2.046875 -1.234375 2.351562 -0.5 2.96875 -0.5 C 3.21875 -0.5 3.460938 -0.628906 3.703125 -0.890625 C 3.878906 -1.085938 3.96875 -1.234375 3.96875 -1.328125 Z M 3.96875 -1.328125 "/></g></g></g><g fill="#ffffff" fill-opacity="1"><g transform="translate(151.108437, 48.599848)"><g><path d="M 5.03125 -1.3125 C 4.644531 -0.757812 4.28125 -0.375 3.9375 -0.15625 C 3.601562 0.0625 3.195312 0.171875 2.71875 0.171875 C 1.988281 0.171875 1.398438 -0.0859375 0.953125 -0.609375 C 0.515625 -1.140625 0.296875 -1.832031 0.296875 -2.6875 C 0.296875 -3.550781 0.519531 -4.25 0.96875 -4.78125 C 1.425781 -5.3125 2.023438 -5.578125 2.765625 -5.578125 C 3.441406 -5.578125 3.972656 -5.34375 4.359375 -4.875 C 4.703125 -4.4375 4.90625 -3.773438 4.96875 -2.890625 L 2 -2.890625 C 2.03125 -2.160156 2.148438 -1.625 2.359375 -1.28125 C 2.597656 -0.882812 2.941406 -0.6875 3.390625 -0.6875 C 3.648438 -0.6875 3.878906 -0.742188 4.078125 -0.859375 C 4.273438 -0.972656 4.5 -1.175781 4.75 -1.46875 Z M 3.515625 -3.328125 L 3.515625 -3.5 C 3.492188 -4.09375 3.457031 -4.476562 3.40625 -4.65625 C 3.3125 -5.03125 3.097656 -5.21875 2.765625 -5.21875 C 2.472656 -5.21875 2.265625 -5.078125 2.140625 -4.796875 C 2.015625 -4.523438 1.945312 -4.035156 1.9375 -3.328125 Z M 3.515625 -3.328125 "/></g></g></g><g fill="#ffffff" fill-opacity="1"><g transform="translate(158.602697, 48.599848)"><g><path d="M 8.90625 -3.09375 C 8.46875 -3.039062 8.1875 -2.953125 8.0625 -2.828125 C 7.945312 -2.703125 7.890625 -2.425781 7.890625 -2 L 7.890625 -0.5 C 7.515625 -0.28125 7.03125 -0.109375 6.4375 0.015625 C 5.851562 0.148438 5.253906 0.21875 4.640625 0.21875 C 3.398438 0.21875 2.390625 -0.160156 1.609375 -0.921875 C 0.828125 -1.691406 0.4375 -2.6875 0.4375 -3.90625 C 0.4375 -5.113281 0.828125 -6.125 1.609375 -6.9375 C 2.390625 -7.75 3.367188 -8.15625 4.546875 -8.15625 C 5.085938 -8.15625 5.695312 -8.015625 6.375 -7.734375 C 6.613281 -7.628906 6.789062 -7.578125 6.90625 -7.578125 C 7.019531 -7.578125 7.113281 -7.613281 7.1875 -7.6875 C 7.269531 -7.769531 7.351562 -7.910156 7.4375 -8.109375 L 7.75 -8.109375 L 7.75 -5.359375 L 7.453125 -5.359375 C 7.253906 -5.804688 7.066406 -6.148438 6.890625 -6.390625 C 6.722656 -6.640625 6.515625 -6.878906 6.265625 -7.109375 C 5.753906 -7.546875 5.226562 -7.765625 4.6875 -7.765625 C 3.976562 -7.765625 3.441406 -7.441406 3.078125 -6.796875 C 2.710938 -6.160156 2.53125 -5.222656 2.53125 -3.984375 C 2.53125 -2.578125 2.785156 -1.546875 3.296875 -0.890625 C 3.671875 -0.410156 4.210938 -0.171875 4.921875 -0.171875 C 5.316406 -0.171875 5.601562 -0.238281 5.78125 -0.375 C 5.957031 -0.507812 6.046875 -0.726562 6.046875 -1.03125 L 6.046875 -2.265625 C 6.046875 -2.585938 5.972656 -2.796875 5.828125 -2.890625 C 5.679688 -2.992188 5.359375 -3.0625 4.859375 -3.09375 L 4.859375 -3.390625 L 8.90625 -3.390625 Z M 8.90625 -3.09375 "/></g></g></g><g fill="#ffffff" fill-opacity="1"><g transform="translate(167.428847, 48.599848)"><g><path d="M 5.609375 -2.703125 C 5.609375 -1.878906 5.359375 -1.191406 4.859375 -0.640625 C 4.359375 -0.0976562 3.726562 0.171875 2.96875 0.171875 C 2.195312 0.171875 1.554688 -0.0976562 1.046875 -0.640625 C 0.546875 -1.191406 0.296875 -1.890625 0.296875 -2.734375 C 0.296875 -3.535156 0.550781 -4.207031 1.0625 -4.75 C 1.582031 -5.300781 2.21875 -5.578125 2.96875 -5.578125 C 3.726562 -5.578125 4.359375 -5.300781 4.859375 -4.75 C 5.359375 -4.207031 5.609375 -3.523438 5.609375 -2.703125 Z M 3.875 -2.625 C 3.875 -3.59375 3.804688 -4.265625 3.671875 -4.640625 C 3.546875 -5.023438 3.3125 -5.21875 2.96875 -5.21875 C 2.613281 -5.21875 2.367188 -5.023438 2.234375 -4.640625 C 2.097656 -4.265625 2.03125 -3.5625 2.03125 -2.53125 C 2.03125 -1.664062 2.097656 -1.0625 2.234375 -0.71875 C 2.367188 -0.375 2.609375 -0.203125 2.953125 -0.203125 C 3.304688 -0.203125 3.546875 -0.378906 3.671875 -0.734375 C 3.804688 -1.097656 3.875 -1.726562 3.875 -2.625 Z M 3.875 -2.625 "/></g></g></g><g fill="#ffffff" fill-opacity="1"><g transform="translate(172.978975, 48.599848)"><g><path d="M 3.015625 0 L 0.1875 0 L 0.1875 -0.28125 C 0.59375 -0.3125 0.796875 -0.546875 0.796875 -0.984375 L 0.796875 -7 C 0.796875 -7.425781 0.59375 -7.65625 0.1875 -7.6875 L 0.1875 -7.96875 L 2.4375 -7.96875 L 2.4375 -0.984375 C 2.4375 -0.523438 2.628906 -0.289062 3.015625 -0.28125 Z M 3.015625 0 "/></g></g></g><g fill="#ffffff" fill-opacity="1"><g transform="translate(175.913006, 48.599848)"><g><path d="M 6.1875 -2.8125 C 6.1875 -1.945312 5.972656 -1.234375 5.546875 -0.671875 C 5.117188 -0.117188 4.578125 0.15625 3.921875 0.15625 C 3.660156 0.15625 3.429688 0.101562 3.234375 0 C 3.046875 -0.09375 2.8125 -0.273438 2.53125 -0.546875 L 2.53125 1.109375 C 2.53125 1.503906 2.59375 1.773438 2.71875 1.921875 C 2.84375 2.066406 3.082031 2.148438 3.4375 2.171875 L 3.4375 2.421875 L 0.21875 2.421875 L 0.21875 2.140625 C 0.507812 2.085938 0.691406 2.019531 0.765625 1.9375 C 0.847656 1.851562 0.890625 1.691406 0.890625 1.453125 L 0.890625 -4.453125 C 0.890625 -4.703125 0.847656 -4.867188 0.765625 -4.953125 C 0.679688 -5.046875 0.507812 -5.113281 0.25 -5.15625 L 0.25 -5.4375 L 2.5 -5.4375 L 2.5 -4.625 C 2.675781 -4.957031 2.878906 -5.195312 3.109375 -5.34375 C 3.347656 -5.5 3.640625 -5.578125 3.984375 -5.578125 C 4.640625 -5.578125 5.171875 -5.320312 5.578125 -4.8125 C 5.984375 -4.300781 6.1875 -3.632812 6.1875 -2.8125 Z M 4.4375 -2.65625 C 4.4375 -4.15625 4.140625 -4.90625 3.546875 -4.90625 C 3.273438 -4.90625 3.015625 -4.769531 2.765625 -4.5 C 2.609375 -4.320312 2.53125 -4.179688 2.53125 -4.078125 L 2.53125 -1.21875 C 2.71875 -0.738281 3.019531 -0.5 3.4375 -0.5 C 4.101562 -0.5 4.4375 -1.21875 4.4375 -2.65625 Z M 4.4375 -2.65625 "/></g></g></g><g fill="#ffffff" fill-opacity="1"><g transform="translate(182.123059, 48.599848)"><g><path d="M 5.03125 -1.3125 C 4.644531 -0.757812 4.28125 -0.375 3.9375 -0.15625 C 3.601562 0.0625 3.195312 0.171875 2.71875 0.171875 C 1.988281 0.171875 1.398438 -0.0859375 0.953125 -0.609375 C 0.515625 -1.140625 0.296875 -1.832031 0.296875 -2.6875 C 0.296875 -3.550781 0.519531 -4.25 0.96875 -4.78125 C 1.425781 -5.3125 2.023438 -5.578125 2.765625 -5.578125 C 3.441406 -5.578125 3.972656 -5.34375 4.359375 -4.875 C 4.703125 -4.4375 4.90625 -3.773438 4.96875 -2.890625 L 2 -2.890625 C 2.03125 -2.160156 2.148438 -1.625 2.359375 -1.28125 C 2.597656 -0.882812 2.941406 -0.6875 3.390625 -0.6875 C 3.648438 -0.6875 3.878906 -0.742188 4.078125 -0.859375 C 4.273438 -0.972656 4.5 -1.175781 4.75 -1.46875 Z M 3.515625 -3.328125 L 3.515625 -3.5 C 3.492188 -4.09375 3.457031 -4.476562 3.40625 -4.65625 C 3.3125 -5.03125 3.097656 -5.21875 2.765625 -5.21875 C 2.472656 -5.21875 2.265625 -5.078125 2.140625 -4.796875 C 2.015625 -4.523438 1.945312 -4.035156 1.9375 -3.328125 Z M 3.515625 -3.328125 "/></g></g></g><g fill="#ffffff" fill-opacity="1"><g transform="translate(187.013262, 48.599848)"><g><path d="M 4.265625 -1.625 C 4.265625 -1.101562 4.09375 -0.671875 3.75 -0.328125 C 3.414062 0.00390625 2.976562 0.171875 2.4375 0.171875 C 2.03125 0.171875 1.609375 0.078125 1.171875 -0.109375 C 1.046875 -0.148438 0.953125 -0.171875 0.890625 -0.171875 C 0.804688 -0.171875 0.707031 -0.0625 0.59375 0.15625 L 0.296875 0.15625 L 0.296875 -1.796875 L 0.625 -1.796875 C 0.875 -0.753906 1.410156 -0.234375 2.234375 -0.234375 C 2.503906 -0.234375 2.71875 -0.300781 2.875 -0.4375 C 3.039062 -0.582031 3.125 -0.769531 3.125 -1 C 3.125 -1.1875 3.035156 -1.359375 2.859375 -1.515625 C 2.691406 -1.679688 2.40625 -1.851562 2 -2.03125 C 1.40625 -2.28125 0.972656 -2.546875 0.703125 -2.828125 C 0.441406 -3.117188 0.3125 -3.460938 0.3125 -3.859375 C 0.3125 -4.347656 0.488281 -4.753906 0.84375 -5.078125 C 1.195312 -5.410156 1.640625 -5.578125 2.171875 -5.578125 C 2.441406 -5.578125 2.75 -5.519531 3.09375 -5.40625 C 3.257812 -5.351562 3.378906 -5.328125 3.453125 -5.328125 C 3.585938 -5.328125 3.6875 -5.40625 3.75 -5.5625 L 4.015625 -5.5625 L 4.015625 -3.84375 L 3.71875 -3.84375 C 3.5625 -4.28125 3.375 -4.601562 3.15625 -4.8125 C 2.894531 -5.0625 2.601562 -5.1875 2.28125 -5.1875 C 2.0625 -5.1875 1.875 -5.117188 1.71875 -4.984375 C 1.570312 -4.859375 1.5 -4.695312 1.5 -4.5 C 1.5 -4.3125 1.585938 -4.132812 1.765625 -3.96875 C 1.941406 -3.8125 2.226562 -3.644531 2.625 -3.46875 C 3.21875 -3.226562 3.640625 -2.960938 3.890625 -2.671875 C 4.140625 -2.390625 4.265625 -2.039062 4.265625 -1.625 Z M 4.265625 -1.625 "/></g></g></g></svg>