<svg xmlns="http://www.w3.org/2000/svg" xmlns:xlink="http://www.w3.org/1999/xlink" width="300" zoomAndPan="magnify" viewBox="0 0 224.87999 56.249996" height="75" preserveAspectRatio="xMidYMid meet" version="1.0"><defs><g/></defs><g fill="#000000" fill-opacity="1"><g transform="translate(1.430637, 29.82652)"><g><path d="M 19.609375 -24.484375 L 19.640625 -8.640625 L 18.21875 -7 L 7.796875 -6.65625 L 7.5 -0.46875 L 0.671875 0.09375 L 0.671875 -26.796875 L 18.296875 -25.796875 Z M 12.578125 -20.484375 L 8.140625 -20.921875 L 7.96875 -12.703125 L 12.546875 -13.046875 Z M 12.578125 -20.484375 "/></g></g></g><g fill="#000000" fill-opacity="1"><g transform="translate(21.740389, 29.82652)"><g><path d="M 13.109375 -6.015625 L 19.265625 -5.609375 L 19.609375 -3.1875 L 17.859375 -0.234375 L 3.0625 -0.03125 L 0.84375 -1.34375 L 0.671875 -17.515625 L 2.75 -19.703125 L 17.3125 -19.40625 L 19.84375 -17.6875 L 19.234375 -8.4375 L 17.25 -7.09375 L 7.875 -7.359375 L 7.765625 -5.109375 L 12.546875 -4.8125 Z M 12.671875 -10.796875 L 12.46875 -14.1875 L 7.640625 -14.390625 L 7.671875 -11.234375 Z M 12.671875 -10.796875 "/></g></g></g><g fill="#000000" fill-opacity="1"><g transform="translate(42.251895, 29.82652)"><g><path d="M 15.5 -19.703125 L 19.765625 -19.8125 L 19.640625 6.71875 L 17.484375 8.578125 L 2.625 8.265625 L 0.96875 5.6875 L 1.203125 2.3125 L 1.953125 1.078125 L 7.4375 0.96875 L 8.109375 3.1875 L 12.703125 2.828125 L 12.609375 -0.5 L 3.0625 -0.03125 L 1.140625 -1.921875 L 0.671875 -16.84375 L 3.0625 -19.671875 L 13.984375 -19.609375 L 14.734375 -18.59375 Z M 7.59375 -13.625 L 7.765625 -6.09375 L 12.515625 -6.328125 L 12.578125 -13.921875 Z M 7.59375 -13.625 "/></g></g></g><g fill="#000000" fill-opacity="1"><g transform="translate(62.696147, 29.82652)"><g><path d="M 19.671875 -18.296875 L 19.90625 0 L 15.296875 0.03125 L 14.59375 -1.140625 L 13.8125 0 L 3.1875 -0.09375 L 0.671875 -1.953125 L 1.28125 -10.6875 L 3.234375 -12.03125 L 12.640625 -12.203125 L 12.75 -14.5 L 7.96875 -14.828125 L 7.390625 -13.578125 L 1.25 -13.984375 L 0.90625 -16.40625 L 2.65625 -19.375 L 17.453125 -19.5625 Z M 12.875 -5.25 L 12.84375 -8.34375 L 7.828125 -8.265625 L 8.03125 -5.453125 Z M 12.875 -5.25 "/></g></g></g><g fill="#ff1616" fill-opacity="1"><g transform="translate(83.274492, 29.82652)"><g><path d="M 10.359375 -14.15625 L 19.375 -14.09375 L 19.5 -2.625 L 18.265625 -0.234375 L 3.09375 -0.03125 L 0.84375 -1.34375 L 0.671875 -25.078125 L 1.75 -26.671875 L 17.625 -26.96875 L 19.671875 -25.28125 L 19.203125 -17.71875 L 12.90625 -17.71875 L 12.4375 -21.28125 L 7.734375 -21.046875 L 7.9375 -5.78125 L 12.515625 -5.484375 L 12.640625 -8.671875 L 10.359375 -8.90625 Z M 10.359375 -14.15625 "/></g></g></g><g fill="#ff1616" fill-opacity="1"><g transform="translate(103.617871, 29.82652)"><g><path d="M 17.890625 -19.40625 L 19.640625 -17.21875 L 19.46875 -2.515625 L 18.15625 -0.140625 L 3.09375 -0.03125 L 0.84375 -1.203125 L 0.671875 -17.453125 L 2.015625 -19.703125 Z M 12.515625 -14.09375 L 7.796875 -14.296875 L 7.9375 -5.375 L 12.40625 -5.015625 Z M 12.515625 -14.09375 "/></g></g></g><g fill="#ff1616" fill-opacity="1"><g transform="translate(123.927624, 29.82652)"><g><path d="M 0.734375 -26.828125 L 9.75 -26.828125 L 8.78125 -0.578125 L 1.84375 0 L 1.984375 -20.578125 L 0.671875 -21.1875 Z M 0.734375 -26.828125 "/></g></g></g><g fill="#ff1616" fill-opacity="1"><g transform="translate(134.351503, 29.82652)"><g><path d="M 19.703125 -18.328125 L 19.765625 -1.75 L 18.328125 -0.0625 L 7.90625 -0.203125 L 7.703125 7.59375 L 0.671875 8.640625 L 0.875 -19.328125 L 5.171875 -19.4375 L 5.75 -18.390625 L 6.59375 -19.328125 L 18.359375 -19.640625 Z M 8.234375 -13.8125 L 8.109375 -5.3125 L 12.671875 -5.6875 L 12.671875 -13.375 Z M 8.234375 -13.8125 "/></g></g></g><g fill="#ff1616" fill-opacity="1"><g transform="translate(154.795754, 29.82652)"><g><path d="M 0.671875 -0.0625 L 0.84375 -19.671875 L 8.140625 -19.671875 L 7.234375 -0.40625 Z M 6.328125 -20.34375 L 2.65625 -20.28125 L 0.96875 -21.421875 L 1.140625 -26.859375 L 7.5 -26.859375 L 8.34375 -25.953125 L 7.59375 -21.390625 Z M 6.328125 -20.34375 "/></g></g></g><g fill="#ff1616" fill-opacity="1"><g transform="translate(163.807368, 29.82652)"><g><path d="M 17.953125 -11.5625 L 19.4375 -8.640625 L 19.171875 -1.578125 L 17.25 -0.171875 L 17.046875 -0.171875 L 2.078125 0 L 0.671875 -1.546875 L 1.140625 -7.0625 L 6.765625 -7.03125 L 7.234375 -5.3125 L 12.640625 -5.3125 L 12.78125 -7.828125 L 2.453125 -8.703125 L 0.875 -9.984375 L 1.046875 -18.015625 L 2.421875 -19.234375 L 16.515625 -19.671875 L 18.96875 -18.796875 L 19.265625 -14.09375 L 17.984375 -13.140625 L 13.34375 -12.984375 L 12.578125 -14.828125 L 7.9375 -14.625 L 7.5625 -12.40625 Z M 17.953125 -11.5625 "/></g></g></g><g fill="#ff1616" fill-opacity="1"><g transform="translate(183.915366, 29.82652)"><g><path d="M 18.296875 -6.953125 L 18.296875 -2.921875 L 16.578125 -0.203125 L 3.125 0 L 1.84375 -2.15625 L 1.984375 -14.421875 L 0.703125 -14.734375 L 0.671875 -18.703125 L 1.40625 -19.46875 L 2.390625 -19.53125 L 2.75 -24.375 L 7.96875 -24.28125 L 8.78125 -23.40625 L 8.75 -19.53125 L 16.046875 -19.375 L 16.875 -18.1875 L 16.8125 -14.296875 L 15.9375 -13.65625 L 8.84375 -13.859375 L 8.546875 -5.453125 L 11.734375 -5.3125 L 12.515625 -8.4375 L 17.453125 -8.140625 Z M 18.296875 -6.953125 "/></g></g></g><g fill="#ff1616" fill-opacity="1"><g transform="translate(202.880097, 29.82652)"><g><path d="M 19.671875 -18.296875 L 19.90625 0 L 15.296875 0.03125 L 14.59375 -1.140625 L 13.8125 0 L 3.1875 -0.09375 L 0.671875 -1.953125 L 1.28125 -10.6875 L 3.234375 -12.03125 L 12.640625 -12.203125 L 12.75 -14.5 L 7.96875 -14.828125 L 7.390625 -13.578125 L 1.25 -13.984375 L 0.90625 -16.40625 L 2.65625 -19.375 L 17.453125 -19.5625 Z M 12.875 -5.25 L 12.84375 -8.34375 L 7.828125 -8.265625 L 8.03125 -5.453125 Z M 12.875 -5.25 "/></g></g></g><g fill="#000000" fill-opacity="1"><g transform="translate(33.26194, 48.652895)"><g><path d="M 6.953125 -6.921875 C 7.734375 -6.234375 8.125 -5.28125 8.125 -4.0625 C 8.125 -2.84375 7.734375 -1.859375 6.953125 -1.109375 C 6.179688 -0.367188 5.160156 0 3.890625 0 L 0.171875 0 L 0.171875 -0.296875 C 0.503906 -0.304688 0.75 -0.375 0.90625 -0.5 C 1.0625 -0.625 1.140625 -0.816406 1.140625 -1.078125 L 1.140625 -6.875 C 1.140625 -7.144531 1.070312 -7.332031 0.9375 -7.4375 C 0.800781 -7.550781 0.546875 -7.628906 0.171875 -7.671875 L 0.171875 -7.96875 L 3.765625 -7.96875 C 5.117188 -7.96875 6.179688 -7.617188 6.953125 -6.921875 Z M 6.078125 -3.890625 C 6.078125 -4.910156 5.914062 -5.734375 5.59375 -6.359375 C 5.195312 -7.160156 4.582031 -7.5625 3.75 -7.5625 C 3.28125 -7.5625 3.046875 -7.425781 3.046875 -7.15625 L 3.046875 -1.09375 C 3.046875 -0.820312 3.09375 -0.640625 3.1875 -0.546875 C 3.28125 -0.453125 3.460938 -0.40625 3.734375 -0.40625 C 4.484375 -0.40625 5.0625 -0.675781 5.46875 -1.21875 C 5.875 -1.789062 6.078125 -2.679688 6.078125 -3.890625 Z M 6.078125 -3.890625 "/></g></g></g><g fill="#000000" fill-opacity="1"><g transform="translate(41.429693, 48.652895)"><g><path d="M 5.015625 -1.3125 C 4.628906 -0.757812 4.269531 -0.375 3.9375 -0.15625 C 3.601562 0.0625 3.195312 0.171875 2.71875 0.171875 C 1.988281 0.171875 1.398438 -0.0859375 0.953125 -0.609375 C 0.515625 -1.140625 0.296875 -1.832031 0.296875 -2.6875 C 0.296875 -3.550781 0.519531 -4.25 0.96875 -4.78125 C 1.425781 -5.3125 2.019531 -5.578125 2.75 -5.578125 C 3.425781 -5.578125 3.957031 -5.335938 4.34375 -4.859375 C 4.6875 -4.429688 4.890625 -3.773438 4.953125 -2.890625 L 1.984375 -2.890625 C 2.023438 -2.160156 2.148438 -1.625 2.359375 -1.28125 C 2.585938 -0.882812 2.929688 -0.6875 3.390625 -0.6875 C 3.640625 -0.6875 3.863281 -0.742188 4.0625 -0.859375 C 4.269531 -0.972656 4.492188 -1.175781 4.734375 -1.46875 Z M 3.515625 -3.328125 L 3.515625 -3.5 C 3.484375 -4.082031 3.445312 -4.46875 3.40625 -4.65625 C 3.3125 -5.019531 3.09375 -5.203125 2.75 -5.203125 C 2.46875 -5.203125 2.265625 -5.0625 2.140625 -4.78125 C 2.015625 -4.507812 1.945312 -4.023438 1.9375 -3.328125 Z M 3.515625 -3.328125 "/></g></g></g><g fill="#000000" fill-opacity="1"><g transform="translate(46.320834, 48.652895)"><g><path d="M 6.34375 0 L 3.578125 0 L 3.578125 -0.28125 C 3.773438 -0.300781 3.914062 -0.363281 4 -0.46875 C 4.09375 -0.570312 4.140625 -0.734375 4.140625 -0.953125 L 4.140625 -3.8125 C 4.140625 -4.457031 3.929688 -4.78125 3.515625 -4.78125 C 3.234375 -4.78125 2.960938 -4.644531 2.703125 -4.375 C 2.578125 -4.25 2.515625 -4.15625 2.515625 -4.09375 L 2.515625 -0.953125 C 2.515625 -0.734375 2.550781 -0.570312 2.625 -0.46875 C 2.707031 -0.375 2.863281 -0.3125 3.09375 -0.28125 L 3.09375 0 L 0.25 0 L 0.25 -0.28125 C 0.507812 -0.332031 0.675781 -0.398438 0.75 -0.484375 C 0.832031 -0.578125 0.875 -0.742188 0.875 -0.984375 L 0.875 -4.453125 C 0.875 -4.691406 0.832031 -4.859375 0.75 -4.953125 C 0.675781 -5.046875 0.507812 -5.109375 0.25 -5.140625 L 0.25 -5.4375 L 2.5 -5.4375 L 2.5 -4.546875 C 2.925781 -5.234375 3.488281 -5.578125 4.1875 -5.578125 C 4.664062 -5.578125 5.046875 -5.425781 5.328125 -5.125 C 5.617188 -4.820312 5.765625 -4.414062 5.765625 -3.90625 L 5.765625 -0.953125 C 5.765625 -0.703125 5.804688 -0.53125 5.890625 -0.4375 C 5.972656 -0.351562 6.125 -0.300781 6.34375 -0.28125 Z M 6.34375 0 "/></g></g></g><g fill="#000000" fill-opacity="1"><g transform="translate(52.532051, 48.652895)"><g><path d="M 6.328125 -0.234375 L 5.59375 -0.15625 C 4.945312 -0.0820312 4.429688 0.0195312 4.046875 0.15625 L 4.046875 -0.609375 C 3.691406 -0.316406 3.394531 -0.113281 3.15625 0 C 2.914062 0.113281 2.640625 0.171875 2.328125 0.171875 C 1.847656 0.171875 1.46875 0.0234375 1.1875 -0.265625 C 0.90625 -0.554688 0.765625 -0.960938 0.765625 -1.484375 L 0.765625 -4.453125 C 0.765625 -4.691406 0.726562 -4.851562 0.65625 -4.9375 C 0.582031 -5.03125 0.425781 -5.097656 0.1875 -5.140625 L 0.1875 -5.4375 L 2.40625 -5.4375 L 2.40625 -1.4375 C 2.40625 -1.132812 2.453125 -0.914062 2.546875 -0.78125 C 2.648438 -0.65625 2.820312 -0.59375 3.0625 -0.59375 C 3.363281 -0.59375 3.6875 -0.769531 4.03125 -1.125 L 4.03125 -4.453125 C 4.03125 -4.703125 3.976562 -4.875 3.875 -4.96875 C 3.78125 -5.0625 3.585938 -5.117188 3.296875 -5.140625 L 3.296875 -5.4375 L 5.671875 -5.4375 L 5.671875 -1.1875 C 5.671875 -0.9375 5.710938 -0.757812 5.796875 -0.65625 C 5.890625 -0.5625 6.066406 -0.507812 6.328125 -0.5 Z M 5.078125 -7.75 C 5.078125 -7.613281 5.046875 -7.503906 4.984375 -7.421875 C 4.921875 -7.335938 4.796875 -7.238281 4.609375 -7.125 L 2.9375 -6.09375 L 2.28125 -6.09375 L 3.890625 -7.9375 C 4.085938 -8.15625 4.296875 -8.265625 4.515625 -8.265625 C 4.679688 -8.265625 4.816406 -8.21875 4.921875 -8.125 C 5.023438 -8.03125 5.078125 -7.90625 5.078125 -7.75 Z M 5.078125 -7.75 "/></g></g></g><g fill="#000000" fill-opacity="1"><g transform="translate(58.743268, 48.652895)"><g><path d="M 6.34375 0 L 3.578125 0 L 3.578125 -0.28125 C 3.773438 -0.300781 3.914062 -0.363281 4 -0.46875 C 4.09375 -0.570312 4.140625 -0.734375 4.140625 -0.953125 L 4.140625 -3.8125 C 4.140625 -4.457031 3.929688 -4.78125 3.515625 -4.78125 C 3.234375 -4.78125 2.960938 -4.644531 2.703125 -4.375 C 2.578125 -4.25 2.515625 -4.15625 2.515625 -4.09375 L 2.515625 -0.953125 C 2.515625 -0.734375 2.550781 -0.570312 2.625 -0.46875 C 2.707031 -0.375 2.863281 -0.3125 3.09375 -0.28125 L 3.09375 0 L 0.25 0 L 0.25 -0.28125 C 0.507812 -0.332031 0.675781 -0.398438 0.75 -0.484375 C 0.832031 -0.578125 0.875 -0.742188 0.875 -0.984375 L 0.875 -4.453125 C 0.875 -4.691406 0.832031 -4.859375 0.75 -4.953125 C 0.675781 -5.046875 0.507812 -5.109375 0.25 -5.140625 L 0.25 -5.4375 L 2.5 -5.4375 L 2.5 -4.546875 C 2.925781 -5.234375 3.488281 -5.578125 4.1875 -5.578125 C 4.664062 -5.578125 5.046875 -5.425781 5.328125 -5.125 C 5.617188 -4.820312 5.765625 -4.414062 5.765625 -3.90625 L 5.765625 -0.953125 C 5.765625 -0.703125 5.804688 -0.53125 5.890625 -0.4375 C 5.972656 -0.351562 6.125 -0.300781 6.34375 -0.28125 Z M 6.34375 0 "/></g></g></g><g fill="#000000" fill-opacity="1"><g transform="translate(64.954484, 48.652895)"><g><path d="M 5.0625 -1.078125 C 4.71875 -0.628906 4.367188 -0.304688 4.015625 -0.109375 C 3.671875 0.078125 3.269531 0.171875 2.8125 0.171875 C 2.070312 0.171875 1.46875 -0.0859375 1 -0.609375 C 0.53125 -1.140625 0.296875 -1.8125 0.296875 -2.625 C 0.296875 -3.476562 0.554688 -4.179688 1.078125 -4.734375 C 1.609375 -5.296875 2.28125 -5.578125 3.09375 -5.578125 C 3.601562 -5.578125 4.03125 -5.453125 4.375 -5.203125 C 4.726562 -4.953125 4.90625 -4.644531 4.90625 -4.28125 C 4.90625 -4.050781 4.832031 -3.867188 4.6875 -3.734375 C 4.550781 -3.597656 4.351562 -3.53125 4.09375 -3.53125 C 3.664062 -3.53125 3.445312 -3.8125 3.4375 -4.375 C 3.4375 -4.707031 3.414062 -4.910156 3.375 -4.984375 C 3.300781 -5.128906 3.15625 -5.203125 2.9375 -5.203125 C 2.632812 -5.203125 2.394531 -5.023438 2.21875 -4.671875 C 2.039062 -4.328125 1.953125 -3.851562 1.953125 -3.25 C 1.953125 -2.445312 2.101562 -1.804688 2.40625 -1.328125 C 2.707031 -0.859375 3.113281 -0.625 3.625 -0.625 C 3.875 -0.625 4.085938 -0.671875 4.265625 -0.765625 C 4.441406 -0.867188 4.640625 -1.039062 4.859375 -1.28125 Z M 5.0625 -1.078125 "/></g></g></g><g fill="#000000" fill-opacity="1"><g transform="translate(69.845624, 48.652895)"><g><path d="M 3 0 L 0.1875 0 L 0.1875 -0.28125 C 0.457031 -0.34375 0.628906 -0.414062 0.703125 -0.5 C 0.773438 -0.582031 0.8125 -0.742188 0.8125 -0.984375 L 0.8125 -4.453125 C 0.8125 -4.691406 0.769531 -4.851562 0.6875 -4.9375 C 0.613281 -5.019531 0.445312 -5.085938 0.1875 -5.140625 L 0.1875 -5.4375 L 2.453125 -5.4375 L 2.453125 -0.953125 C 2.453125 -0.734375 2.492188 -0.570312 2.578125 -0.46875 C 2.660156 -0.375 2.800781 -0.3125 3 -0.28125 Z M 2.25 -7.828125 C 2.425781 -7.660156 2.515625 -7.445312 2.515625 -7.1875 C 2.515625 -6.925781 2.425781 -6.707031 2.25 -6.53125 C 2.070312 -6.363281 1.859375 -6.28125 1.609375 -6.28125 C 1.359375 -6.28125 1.144531 -6.363281 0.96875 -6.53125 C 0.789062 -6.707031 0.703125 -6.925781 0.703125 -7.1875 C 0.703125 -7.445312 0.789062 -7.660156 0.96875 -7.828125 C 1.144531 -8.003906 1.359375 -8.09375 1.609375 -8.09375 C 1.859375 -8.09375 2.070312 -8.003906 2.25 -7.828125 Z M 2.25 -7.828125 "/></g></g></g><g fill="#000000" fill-opacity="1"><g transform="translate(72.780229, 48.652895)"><g><path d="M 5.75 -0.5 C 5.332031 -0.0507812 4.894531 0.171875 4.4375 0.171875 C 4.144531 0.171875 3.925781 0.109375 3.78125 -0.015625 C 3.632812 -0.148438 3.53125 -0.363281 3.46875 -0.65625 C 2.863281 -0.101562 2.238281 0.171875 1.59375 0.171875 C 1.21875 0.171875 0.90625 0.0507812 0.65625 -0.1875 C 0.414062 -0.425781 0.296875 -0.722656 0.296875 -1.078125 C 0.296875 -1.585938 0.554688 -2.019531 1.078125 -2.375 C 1.460938 -2.625 2.257812 -2.929688 3.46875 -3.296875 L 3.46875 -4.15625 C 3.46875 -4.519531 3.390625 -4.785156 3.234375 -4.953125 C 3.078125 -5.117188 2.820312 -5.203125 2.46875 -5.203125 C 2.257812 -5.203125 2.082031 -5.160156 1.9375 -5.078125 C 1.800781 -4.992188 1.734375 -4.890625 1.734375 -4.765625 C 1.734375 -4.691406 1.78125 -4.601562 1.875 -4.5 C 2.007812 -4.320312 2.078125 -4.15625 2.078125 -4 C 2.078125 -3.789062 2.003906 -3.625 1.859375 -3.5 C 1.710938 -3.375 1.519531 -3.3125 1.28125 -3.3125 C 1.039062 -3.3125 0.851562 -3.378906 0.71875 -3.515625 C 0.582031 -3.648438 0.515625 -3.84375 0.515625 -4.09375 C 0.515625 -4.53125 0.71875 -4.882812 1.125 -5.15625 C 1.539062 -5.4375 2.082031 -5.578125 2.75 -5.578125 C 3.46875 -5.578125 4.035156 -5.429688 4.453125 -5.140625 C 4.867188 -4.859375 5.078125 -4.460938 5.078125 -3.953125 L 5.078125 -0.890625 C 5.078125 -0.691406 5.160156 -0.59375 5.328125 -0.59375 C 5.378906 -0.59375 5.421875 -0.609375 5.453125 -0.640625 L 5.578125 -0.75 Z M 3.453125 -1.171875 L 3.453125 -2.890625 C 2.492188 -2.617188 2.015625 -2.140625 2.015625 -1.453125 C 2.015625 -1.222656 2.066406 -1.035156 2.171875 -0.890625 C 2.285156 -0.742188 2.429688 -0.671875 2.609375 -0.671875 C 2.878906 -0.671875 3.160156 -0.835938 3.453125 -1.171875 Z M 3.453125 -1.171875 "/></g></g></g><g fill="#000000" fill-opacity="1"><g transform="translate(78.331407, 48.652895)"><g/></g></g><g fill="#000000" fill-opacity="1"><g transform="translate(80.935998, 48.652895)"><g><path d="M 9.265625 -1.3125 L 9.078125 -1 C 8.828125 -0.59375 8.617188 -0.316406 8.453125 -0.171875 C 8.128906 0.0664062 7.757812 0.1875 7.34375 0.1875 C 7.03125 0.1875 6.75 0.113281 6.5 -0.03125 C 6.25 -0.1875 5.945312 -0.457031 5.59375 -0.84375 C 4.675781 -0.164062 3.804688 0.171875 2.984375 0.171875 C 2.316406 0.171875 1.773438 -0.0195312 1.359375 -0.40625 C 0.941406 -0.789062 0.734375 -1.285156 0.734375 -1.890625 C 0.734375 -2.453125 0.910156 -2.9375 1.265625 -3.34375 C 1.617188 -3.75 2.210938 -4.160156 3.046875 -4.578125 C 2.804688 -4.984375 2.640625 -5.300781 2.546875 -5.53125 C 2.460938 -5.769531 2.421875 -6.019531 2.421875 -6.28125 C 2.421875 -6.851562 2.625 -7.304688 3.03125 -7.640625 C 3.445312 -7.972656 4.007812 -8.140625 4.71875 -8.140625 C 5.320312 -8.140625 5.800781 -8.003906 6.15625 -7.734375 C 6.507812 -7.472656 6.6875 -7.128906 6.6875 -6.703125 C 6.6875 -6.335938 6.546875 -6.015625 6.265625 -5.734375 C 5.984375 -5.460938 5.53125 -5.210938 4.90625 -4.984375 L 6.6875 -2.46875 C 7.03125 -2.894531 7.265625 -3.222656 7.390625 -3.453125 C 7.515625 -3.691406 7.578125 -3.929688 7.578125 -4.171875 C 7.578125 -4.347656 7.53125 -4.460938 7.4375 -4.515625 C 7.351562 -4.566406 7.140625 -4.613281 6.796875 -4.65625 L 6.796875 -4.9375 L 9.21875 -4.9375 L 9.21875 -4.65625 C 8.96875 -4.632812 8.789062 -4.59375 8.6875 -4.53125 C 8.582031 -4.46875 8.472656 -4.351562 8.359375 -4.1875 L 8.046875 -3.65625 C 7.804688 -3.28125 7.441406 -2.753906 6.953125 -2.078125 C 7.285156 -1.648438 7.546875 -1.363281 7.734375 -1.21875 C 7.921875 -1.070312 8.128906 -1 8.359375 -1 C 8.617188 -1 8.84375 -1.148438 9.03125 -1.453125 Z M 5.328125 -1.171875 C 5.035156 -1.554688 4.53125 -2.289062 3.8125 -3.375 L 3.234375 -4.21875 C 2.910156 -4.03125 2.6875 -3.851562 2.5625 -3.6875 C 2.4375 -3.519531 2.375 -3.328125 2.375 -3.109375 C 2.375 -2.804688 2.453125 -2.476562 2.609375 -2.125 C 2.765625 -1.78125 2.96875 -1.476562 3.21875 -1.21875 C 3.53125 -0.882812 3.878906 -0.71875 4.265625 -0.71875 C 4.546875 -0.71875 4.898438 -0.867188 5.328125 -1.171875 Z M 5.5 -6.28125 C 5.5 -6.675781 5.390625 -7.019531 5.171875 -7.3125 C 4.960938 -7.601562 4.710938 -7.75 4.421875 -7.75 C 4.234375 -7.75 4.082031 -7.691406 3.96875 -7.578125 C 3.863281 -7.460938 3.8125 -7.300781 3.8125 -7.09375 C 3.8125 -6.632812 4.097656 -6.046875 4.671875 -5.328125 C 4.972656 -5.429688 5.1875 -5.554688 5.3125 -5.703125 C 5.4375 -5.847656 5.5 -6.039062 5.5 -6.28125 Z M 5.5 -6.28125 "/></g></g></g><g fill="#000000" fill-opacity="1"><g transform="translate(90.412035, 48.652895)"><g/></g></g><g fill="#000000" fill-opacity="1"><g transform="translate(93.016626, 48.652895)"><g><path d="M 7.0625 -5.8125 C 7.0625 -5.363281 6.929688 -4.960938 6.671875 -4.609375 C 6.421875 -4.265625 6.0625 -4.003906 5.59375 -3.828125 C 5.332031 -3.722656 5.046875 -3.65625 4.734375 -3.625 C 4.429688 -3.59375 3.882812 -3.570312 3.09375 -3.5625 L 3.09375 -1.375 C 3.09375 -0.945312 3.144531 -0.675781 3.25 -0.5625 C 3.363281 -0.445312 3.65625 -0.359375 4.125 -0.296875 L 4.125 0 L 0.1875 0 L 0.1875 -0.296875 C 0.363281 -0.328125 0.457031 -0.34375 0.46875 -0.34375 C 0.75 -0.375 0.9375 -0.460938 1.03125 -0.609375 C 1.125 -0.753906 1.171875 -1.007812 1.171875 -1.375 L 1.171875 -6.578125 C 1.171875 -6.992188 1.109375 -7.269531 0.984375 -7.40625 C 0.859375 -7.550781 0.59375 -7.640625 0.1875 -7.671875 L 0.1875 -7.96875 L 3.984375 -7.96875 C 4.960938 -7.96875 5.71875 -7.78125 6.25 -7.40625 C 6.789062 -7.03125 7.0625 -6.5 7.0625 -5.8125 Z M 5.046875 -5.765625 C 5.046875 -6.398438 4.9375 -6.851562 4.71875 -7.125 C 4.507812 -7.40625 4.160156 -7.546875 3.671875 -7.546875 C 3.285156 -7.546875 3.09375 -7.410156 3.09375 -7.140625 L 3.09375 -3.984375 C 3.84375 -3.984375 4.34375 -4.085938 4.59375 -4.296875 C 4.894531 -4.566406 5.046875 -5.054688 5.046875 -5.765625 Z M 5.046875 -5.765625 "/></g></g></g><g fill="#000000" fill-opacity="1"><g transform="translate(99.876091, 48.652895)"><g><path d="M 5.109375 -4.65625 C 5.109375 -4.425781 5.039062 -4.234375 4.90625 -4.078125 C 4.769531 -3.929688 4.59375 -3.859375 4.375 -3.859375 C 4.09375 -3.859375 3.851562 -4 3.65625 -4.28125 C 3.53125 -4.46875 3.421875 -4.5625 3.328125 -4.5625 C 3.140625 -4.5625 2.972656 -4.453125 2.828125 -4.234375 C 2.679688 -4.015625 2.609375 -3.75 2.609375 -3.4375 L 2.609375 -1.21875 C 2.609375 -0.84375 2.660156 -0.597656 2.765625 -0.484375 C 2.878906 -0.367188 3.113281 -0.300781 3.46875 -0.28125 L 3.46875 0 L 0.34375 0 L 0.34375 -0.28125 C 0.601562 -0.332031 0.773438 -0.398438 0.859375 -0.484375 C 0.941406 -0.578125 0.984375 -0.742188 0.984375 -0.984375 L 0.984375 -4.453125 C 0.984375 -4.691406 0.9375 -4.859375 0.84375 -4.953125 C 0.757812 -5.046875 0.59375 -5.109375 0.34375 -5.140625 L 0.34375 -5.4375 L 2.5625 -5.4375 L 2.5625 -4.46875 C 2.84375 -4.851562 3.101562 -5.132812 3.34375 -5.3125 C 3.59375 -5.488281 3.863281 -5.578125 4.15625 -5.578125 C 4.4375 -5.578125 4.664062 -5.488281 4.84375 -5.3125 C 5.019531 -5.132812 5.109375 -4.914062 5.109375 -4.65625 Z M 5.109375 -4.65625 "/></g></g></g><g fill="#000000" fill-opacity="1"><g transform="translate(104.767231, 48.652895)"><g><path d="M 5.015625 -1.3125 C 4.628906 -0.757812 4.269531 -0.375 3.9375 -0.15625 C 3.601562 0.0625 3.195312 0.171875 2.71875 0.171875 C 1.988281 0.171875 1.398438 -0.0859375 0.953125 -0.609375 C 0.515625 -1.140625 0.296875 -1.832031 0.296875 -2.6875 C 0.296875 -3.550781 0.519531 -4.25 0.96875 -4.78125 C 1.425781 -5.3125 2.019531 -5.578125 2.75 -5.578125 C 3.425781 -5.578125 3.957031 -5.335938 4.34375 -4.859375 C 4.6875 -4.429688 4.890625 -3.773438 4.953125 -2.890625 L 1.984375 -2.890625 C 2.023438 -2.160156 2.148438 -1.625 2.359375 -1.28125 C 2.585938 -0.882812 2.929688 -0.6875 3.390625 -0.6875 C 3.640625 -0.6875 3.863281 -0.742188 4.0625 -0.859375 C 4.269531 -0.972656 4.492188 -1.175781 4.734375 -1.46875 Z M 3.515625 -3.328125 L 3.515625 -3.5 C 3.484375 -4.082031 3.445312 -4.46875 3.40625 -4.65625 C 3.3125 -5.019531 3.09375 -5.203125 2.75 -5.203125 C 2.46875 -5.203125 2.265625 -5.0625 2.140625 -4.78125 C 2.015625 -4.507812 1.945312 -4.023438 1.9375 -3.328125 Z M 3.515625 -3.328125 "/></g></g></g><g fill="#000000" fill-opacity="1"><g transform="translate(109.65837, 48.652895)"><g><path d="M 5.71875 -5.140625 C 5.53125 -5.128906 5.394531 -5.082031 5.3125 -5 C 5.238281 -4.925781 5.144531 -4.757812 5.03125 -4.5 L 3.140625 0.171875 L 2.84375 0.171875 L 1.421875 -3.328125 C 1.191406 -3.910156 0.945312 -4.4375 0.6875 -4.90625 C 0.664062 -4.945312 0.65625 -4.96875 0.65625 -4.96875 C 0.59375 -5.050781 0.457031 -5.109375 0.25 -5.140625 L 0.25 -5.4375 L 3.1875 -5.4375 L 3.1875 -5.140625 L 2.984375 -5.125 C 2.703125 -5.101562 2.5625 -5.007812 2.5625 -4.84375 C 2.5625 -4.789062 2.597656 -4.671875 2.671875 -4.484375 L 3.609375 -2.078125 L 4.453125 -4.234375 C 4.535156 -4.453125 4.578125 -4.628906 4.578125 -4.765625 C 4.578125 -4.898438 4.53125 -4.992188 4.4375 -5.046875 C 4.351562 -5.097656 4.1875 -5.128906 3.9375 -5.140625 L 3.9375 -5.4375 L 5.71875 -5.4375 Z M 5.71875 -5.140625 "/></g></g></g><g fill="#000000" fill-opacity="1"><g transform="translate(115.209553, 48.652895)"><g><path d="M 5.015625 -1.3125 C 4.628906 -0.757812 4.269531 -0.375 3.9375 -0.15625 C 3.601562 0.0625 3.195312 0.171875 2.71875 0.171875 C 1.988281 0.171875 1.398438 -0.0859375 0.953125 -0.609375 C 0.515625 -1.140625 0.296875 -1.832031 0.296875 -2.6875 C 0.296875 -3.550781 0.519531 -4.25 0.96875 -4.78125 C 1.425781 -5.3125 2.019531 -5.578125 2.75 -5.578125 C 3.425781 -5.578125 3.957031 -5.335938 4.34375 -4.859375 C 4.6875 -4.429688 4.890625 -3.773438 4.953125 -2.890625 L 1.984375 -2.890625 C 2.023438 -2.160156 2.148438 -1.625 2.359375 -1.28125 C 2.585938 -0.882812 2.929688 -0.6875 3.390625 -0.6875 C 3.640625 -0.6875 3.863281 -0.742188 4.0625 -0.859375 C 4.269531 -0.972656 4.492188 -1.175781 4.734375 -1.46875 Z M 3.515625 -3.328125 L 3.515625 -3.5 C 3.484375 -4.082031 3.445312 -4.46875 3.40625 -4.65625 C 3.3125 -5.019531 3.09375 -5.203125 2.75 -5.203125 C 2.46875 -5.203125 2.265625 -5.0625 2.140625 -4.78125 C 2.015625 -4.507812 1.945312 -4.023438 1.9375 -3.328125 Z M 3.515625 -3.328125 "/></g></g></g><g fill="#000000" fill-opacity="1"><g transform="translate(120.100693, 48.652895)"><g><path d="M 6.34375 0 L 3.578125 0 L 3.578125 -0.28125 C 3.773438 -0.300781 3.914062 -0.363281 4 -0.46875 C 4.09375 -0.570312 4.140625 -0.734375 4.140625 -0.953125 L 4.140625 -3.8125 C 4.140625 -4.457031 3.929688 -4.78125 3.515625 -4.78125 C 3.234375 -4.78125 2.960938 -4.644531 2.703125 -4.375 C 2.578125 -4.25 2.515625 -4.15625 2.515625 -4.09375 L 2.515625 -0.953125 C 2.515625 -0.734375 2.550781 -0.570312 2.625 -0.46875 C 2.707031 -0.375 2.863281 -0.3125 3.09375 -0.28125 L 3.09375 0 L 0.25 0 L 0.25 -0.28125 C 0.507812 -0.332031 0.675781 -0.398438 0.75 -0.484375 C 0.832031 -0.578125 0.875 -0.742188 0.875 -0.984375 L 0.875 -4.453125 C 0.875 -4.691406 0.832031 -4.859375 0.75 -4.953125 C 0.675781 -5.046875 0.507812 -5.109375 0.25 -5.140625 L 0.25 -5.4375 L 2.5 -5.4375 L 2.5 -4.546875 C 2.925781 -5.234375 3.488281 -5.578125 4.1875 -5.578125 C 4.664062 -5.578125 5.046875 -5.425781 5.328125 -5.125 C 5.617188 -4.820312 5.765625 -4.414062 5.765625 -3.90625 L 5.765625 -0.953125 C 5.765625 -0.703125 5.804688 -0.53125 5.890625 -0.4375 C 5.972656 -0.351562 6.125 -0.300781 6.34375 -0.28125 Z M 6.34375 0 "/></g></g></g><g fill="#000000" fill-opacity="1"><g transform="translate(126.311909, 48.652895)"><g><path d="M 5.0625 -1.078125 C 4.539062 -0.367188 3.894531 0.0390625 3.125 0.15625 L 2.84375 0.75 C 2.96875 0.707031 3.097656 0.6875 3.234375 0.6875 C 3.554688 0.6875 3.8125 0.757812 4 0.90625 C 4.1875 1.050781 4.28125 1.253906 4.28125 1.515625 C 4.28125 1.835938 4.140625 2.09375 3.859375 2.28125 C 3.585938 2.46875 3.21875 2.5625 2.75 2.5625 C 2.394531 2.5625 2.015625 2.492188 1.609375 2.359375 L 1.796875 1.921875 L 1.875 1.9375 C 2.113281 2.03125 2.320312 2.078125 2.5 2.078125 C 2.957031 2.078125 3.1875 1.921875 3.1875 1.609375 C 3.1875 1.316406 3.003906 1.171875 2.640625 1.171875 C 2.535156 1.171875 2.425781 1.1875 2.3125 1.21875 L 2.171875 1.125 L 2.609375 0.15625 C 1.910156 0.09375 1.347656 -0.1875 0.921875 -0.6875 C 0.503906 -1.195312 0.296875 -1.84375 0.296875 -2.625 C 0.296875 -3.476562 0.554688 -4.179688 1.078125 -4.734375 C 1.609375 -5.296875 2.28125 -5.578125 3.09375 -5.578125 C 3.601562 -5.578125 4.03125 -5.453125 4.375 -5.203125 C 4.726562 -4.953125 4.90625 -4.644531 4.90625 -4.28125 C 4.90625 -4.050781 4.832031 -3.867188 4.6875 -3.734375 C 4.550781 -3.597656 4.351562 -3.53125 4.09375 -3.53125 C 3.664062 -3.53125 3.445312 -3.8125 3.4375 -4.375 C 3.4375 -4.707031 3.414062 -4.910156 3.375 -4.984375 C 3.300781 -5.128906 3.15625 -5.203125 2.9375 -5.203125 C 2.632812 -5.203125 2.394531 -5.023438 2.21875 -4.671875 C 2.039062 -4.328125 1.953125 -3.851562 1.953125 -3.25 C 1.953125 -2.445312 2.101562 -1.804688 2.40625 -1.328125 C 2.707031 -0.859375 3.113281 -0.625 3.625 -0.625 C 3.875 -0.625 4.085938 -0.671875 4.265625 -0.765625 C 4.441406 -0.867188 4.640625 -1.039062 4.859375 -1.28125 Z M 5.0625 -1.078125 "/></g></g></g><g fill="#000000" fill-opacity="1"><g transform="translate(131.203049, 48.652895)"><g><path d="M 5.75 -0.5 C 5.332031 -0.0507812 4.894531 0.171875 4.4375 0.171875 C 4.144531 0.171875 3.925781 0.109375 3.78125 -0.015625 C 3.632812 -0.148438 3.53125 -0.363281 3.46875 -0.65625 C 2.863281 -0.101562 2.238281 0.171875 1.59375 0.171875 C 1.21875 0.171875 0.90625 0.0507812 0.65625 -0.1875 C 0.414062 -0.425781 0.296875 -0.722656 0.296875 -1.078125 C 0.296875 -1.585938 0.554688 -2.019531 1.078125 -2.375 C 1.460938 -2.625 2.257812 -2.929688 3.46875 -3.296875 L 3.46875 -4.15625 C 3.46875 -4.519531 3.390625 -4.785156 3.234375 -4.953125 C 3.078125 -5.117188 2.820312 -5.203125 2.46875 -5.203125 C 2.257812 -5.203125 2.082031 -5.160156 1.9375 -5.078125 C 1.800781 -4.992188 1.734375 -4.890625 1.734375 -4.765625 C 1.734375 -4.691406 1.78125 -4.601562 1.875 -4.5 C 2.007812 -4.320312 2.078125 -4.15625 2.078125 -4 C 2.078125 -3.789062 2.003906 -3.625 1.859375 -3.5 C 1.710938 -3.375 1.519531 -3.3125 1.28125 -3.3125 C 1.039062 -3.3125 0.851562 -3.378906 0.71875 -3.515625 C 0.582031 -3.648438 0.515625 -3.84375 0.515625 -4.09375 C 0.515625 -4.53125 0.71875 -4.882812 1.125 -5.15625 C 1.539062 -5.4375 2.082031 -5.578125 2.75 -5.578125 C 3.46875 -5.578125 4.035156 -5.429688 4.453125 -5.140625 C 4.867188 -4.859375 5.078125 -4.460938 5.078125 -3.953125 L 5.078125 -0.890625 C 5.078125 -0.691406 5.160156 -0.59375 5.328125 -0.59375 C 5.378906 -0.59375 5.421875 -0.609375 5.453125 -0.640625 L 5.578125 -0.75 Z M 3.453125 -1.171875 L 3.453125 -2.890625 C 2.492188 -2.617188 2.015625 -2.140625 2.015625 -1.453125 C 2.015625 -1.222656 2.066406 -1.035156 2.171875 -0.890625 C 2.285156 -0.742188 2.429688 -0.671875 2.609375 -0.671875 C 2.878906 -0.671875 3.160156 -0.835938 3.453125 -1.171875 Z M 4.90625 -7.9375 C 4.632812 -6.9375 4.171875 -6.4375 3.515625 -6.4375 C 3.273438 -6.4375 3.023438 -6.492188 2.765625 -6.609375 L 2.421875 -6.765625 C 2.035156 -6.929688 1.785156 -7.015625 1.671875 -7.015625 C 1.523438 -7.015625 1.394531 -6.960938 1.28125 -6.859375 C 1.175781 -6.765625 1.113281 -6.632812 1.09375 -6.46875 L 0.59375 -6.46875 C 0.707031 -6.976562 0.875 -7.347656 1.09375 -7.578125 C 1.3125 -7.816406 1.601562 -7.9375 1.96875 -7.9375 C 2.21875 -7.9375 2.503906 -7.863281 2.828125 -7.71875 L 3.296875 -7.5 C 3.503906 -7.40625 3.660156 -7.359375 3.765625 -7.359375 C 3.921875 -7.359375 4.046875 -7.398438 4.140625 -7.484375 C 4.234375 -7.578125 4.316406 -7.726562 4.390625 -7.9375 Z M 4.90625 -7.9375 "/></g></g></g><g fill="#000000" fill-opacity="1"><g transform="translate(136.754227, 48.652895)"><g><path d="M 5.609375 -2.703125 C 5.609375 -1.878906 5.351562 -1.191406 4.84375 -0.640625 C 4.34375 -0.0976562 3.710938 0.171875 2.953125 0.171875 C 2.179688 0.171875 1.546875 -0.0976562 1.046875 -0.640625 C 0.546875 -1.191406 0.296875 -1.890625 0.296875 -2.734375 C 0.296875 -3.535156 0.550781 -4.207031 1.0625 -4.75 C 1.582031 -5.300781 2.210938 -5.578125 2.953125 -5.578125 C 3.710938 -5.578125 4.34375 -5.300781 4.84375 -4.75 C 5.351562 -4.207031 5.609375 -3.523438 5.609375 -2.703125 Z M 3.875 -2.625 C 3.875 -3.59375 3.804688 -4.265625 3.671875 -4.640625 C 3.535156 -5.015625 3.300781 -5.203125 2.96875 -5.203125 C 2.601562 -5.203125 2.351562 -5.015625 2.21875 -4.640625 C 2.09375 -4.265625 2.03125 -3.554688 2.03125 -2.515625 C 2.03125 -1.648438 2.097656 -1.046875 2.234375 -0.703125 C 2.367188 -0.367188 2.609375 -0.203125 2.953125 -0.203125 C 3.296875 -0.203125 3.535156 -0.378906 3.671875 -0.734375 C 3.804688 -1.085938 3.875 -1.71875 3.875 -2.625 Z M 3.875 -2.625 "/></g></g></g><g fill="#000000" fill-opacity="1"><g transform="translate(142.305405, 48.652895)"><g/></g></g><g fill="#000000" fill-opacity="1"><g transform="translate(144.909996, 48.652895)"><g><path d="M 6.296875 -0.234375 L 5.5625 -0.140625 C 4.976562 -0.078125 4.457031 0.0195312 4 0.15625 L 4 -0.609375 C 3.71875 -0.316406 3.460938 -0.113281 3.234375 0 C 3.003906 0.113281 2.734375 0.171875 2.421875 0.171875 C 1.804688 0.171875 1.296875 -0.0859375 0.890625 -0.609375 C 0.492188 -1.140625 0.296875 -1.804688 0.296875 -2.609375 C 0.296875 -3.460938 0.507812 -4.171875 0.9375 -4.734375 C 1.363281 -5.296875 1.90625 -5.578125 2.5625 -5.578125 C 2.820312 -5.578125 3.054688 -5.519531 3.265625 -5.40625 C 3.472656 -5.300781 3.703125 -5.113281 3.953125 -4.84375 L 3.953125 -7 C 3.953125 -7.269531 3.898438 -7.441406 3.796875 -7.515625 C 3.703125 -7.597656 3.457031 -7.65625 3.0625 -7.6875 L 3.0625 -7.96875 L 5.59375 -7.96875 L 5.59375 -1.1875 C 5.59375 -0.9375 5.640625 -0.765625 5.734375 -0.671875 C 5.835938 -0.578125 6.023438 -0.519531 6.296875 -0.5 Z M 3.953125 -1.3125 L 3.953125 -4.1875 C 3.878906 -4.40625 3.753906 -4.578125 3.578125 -4.703125 C 3.410156 -4.835938 3.234375 -4.90625 3.046875 -4.90625 C 2.367188 -4.90625 2.03125 -4.171875 2.03125 -2.703125 C 2.03125 -1.234375 2.335938 -0.5 2.953125 -0.5 C 3.210938 -0.5 3.460938 -0.628906 3.703125 -0.890625 C 3.867188 -1.078125 3.953125 -1.21875 3.953125 -1.3125 Z M 3.953125 -1.3125 "/></g></g></g><g fill="#000000" fill-opacity="1"><g transform="translate(151.121212, 48.652895)"><g><path d="M 5.015625 -1.3125 C 4.628906 -0.757812 4.269531 -0.375 3.9375 -0.15625 C 3.601562 0.0625 3.195312 0.171875 2.71875 0.171875 C 1.988281 0.171875 1.398438 -0.0859375 0.953125 -0.609375 C 0.515625 -1.140625 0.296875 -1.832031 0.296875 -2.6875 C 0.296875 -3.550781 0.519531 -4.25 0.96875 -4.78125 C 1.425781 -5.3125 2.019531 -5.578125 2.75 -5.578125 C 3.425781 -5.578125 3.957031 -5.335938 4.34375 -4.859375 C 4.6875 -4.429688 4.890625 -3.773438 4.953125 -2.890625 L 1.984375 -2.890625 C 2.023438 -2.160156 2.148438 -1.625 2.359375 -1.28125 C 2.585938 -0.882812 2.929688 -0.6875 3.390625 -0.6875 C 3.640625 -0.6875 3.863281 -0.742188 4.0625 -0.859375 C 4.269531 -0.972656 4.492188 -1.175781 4.734375 -1.46875 Z M 3.515625 -3.328125 L 3.515625 -3.5 C 3.484375 -4.082031 3.445312 -4.46875 3.40625 -4.65625 C 3.3125 -5.019531 3.09375 -5.203125 2.75 -5.203125 C 2.46875 -5.203125 2.265625 -5.0625 2.140625 -4.78125 C 2.015625 -4.507812 1.945312 -4.023438 1.9375 -3.328125 Z M 3.515625 -3.328125 "/></g></g></g><g fill="#000000" fill-opacity="1"><g transform="translate(156.012352, 48.652895)"><g/></g></g><g fill="#000000" fill-opacity="1"><g transform="translate(158.616942, 48.652895)"><g><path d="M 8.890625 -3.09375 C 8.453125 -3.039062 8.171875 -2.953125 8.046875 -2.828125 C 7.929688 -2.703125 7.875 -2.425781 7.875 -2 L 7.875 -0.5 C 7.5 -0.28125 7.015625 -0.109375 6.421875 0.015625 C 5.835938 0.148438 5.238281 0.21875 4.625 0.21875 C 3.394531 0.21875 2.390625 -0.160156 1.609375 -0.921875 C 0.828125 -1.691406 0.4375 -2.6875 0.4375 -3.90625 C 0.4375 -5.113281 0.828125 -6.117188 1.609375 -6.921875 C 2.390625 -7.734375 3.363281 -8.140625 4.53125 -8.140625 C 5.070312 -8.140625 5.679688 -8.003906 6.359375 -7.734375 C 6.609375 -7.617188 6.789062 -7.5625 6.90625 -7.5625 C 7.007812 -7.5625 7.097656 -7.597656 7.171875 -7.671875 C 7.253906 -7.753906 7.335938 -7.898438 7.421875 -8.109375 L 7.734375 -8.109375 L 7.734375 -5.34375 L 7.453125 -5.34375 C 7.242188 -5.789062 7.054688 -6.140625 6.890625 -6.390625 C 6.722656 -6.640625 6.507812 -6.875 6.25 -7.09375 C 5.738281 -7.53125 5.21875 -7.75 4.6875 -7.75 C 3.96875 -7.75 3.425781 -7.425781 3.0625 -6.78125 C 2.695312 -6.144531 2.515625 -5.210938 2.515625 -3.984375 C 2.515625 -2.578125 2.769531 -1.546875 3.28125 -0.890625 C 3.664062 -0.410156 4.207031 -0.171875 4.90625 -0.171875 C 5.300781 -0.171875 5.585938 -0.238281 5.765625 -0.375 C 5.953125 -0.507812 6.046875 -0.726562 6.046875 -1.03125 L 6.046875 -2.265625 C 6.046875 -2.585938 5.972656 -2.796875 5.828125 -2.890625 C 5.679688 -2.992188 5.359375 -3.0625 4.859375 -3.09375 L 4.859375 -3.375 L 8.890625 -3.375 Z M 8.890625 -3.09375 "/></g></g></g><g fill="#000000" fill-opacity="1"><g transform="translate(167.444732, 48.652895)"><g><path d="M 5.609375 -2.703125 C 5.609375 -1.878906 5.351562 -1.191406 4.84375 -0.640625 C 4.34375 -0.0976562 3.710938 0.171875 2.953125 0.171875 C 2.179688 0.171875 1.546875 -0.0976562 1.046875 -0.640625 C 0.546875 -1.191406 0.296875 -1.890625 0.296875 -2.734375 C 0.296875 -3.535156 0.550781 -4.207031 1.0625 -4.75 C 1.582031 -5.300781 2.210938 -5.578125 2.953125 -5.578125 C 3.710938 -5.578125 4.34375 -5.300781 4.84375 -4.75 C 5.351562 -4.207031 5.609375 -3.523438 5.609375 -2.703125 Z M 3.875 -2.625 C 3.875 -3.59375 3.804688 -4.265625 3.671875 -4.640625 C 3.535156 -5.015625 3.300781 -5.203125 2.96875 -5.203125 C 2.601562 -5.203125 2.351562 -5.015625 2.21875 -4.640625 C 2.09375 -4.265625 2.03125 -3.554688 2.03125 -2.515625 C 2.03125 -1.648438 2.097656 -1.046875 2.234375 -0.703125 C 2.367188 -0.367188 2.609375 -0.203125 2.953125 -0.203125 C 3.296875 -0.203125 3.535156 -0.378906 3.671875 -0.734375 C 3.804688 -1.085938 3.875 -1.71875 3.875 -2.625 Z M 3.875 -2.625 "/></g></g></g><g fill="#000000" fill-opacity="1"><g transform="translate(172.99591, 48.652895)"><g><path d="M 3 0 L 0.1875 0 L 0.1875 -0.28125 C 0.59375 -0.3125 0.796875 -0.546875 0.796875 -0.984375 L 0.796875 -7 C 0.796875 -7.425781 0.59375 -7.65625 0.1875 -7.6875 L 0.1875 -7.96875 L 2.421875 -7.96875 L 2.421875 -0.984375 C 2.421875 -0.523438 2.613281 -0.289062 3 -0.28125 Z M 3 0 "/></g></g></g><g fill="#000000" fill-opacity="1"><g transform="translate(175.930514, 48.652895)"><g><path d="M 6.171875 -2.8125 C 6.171875 -1.945312 5.957031 -1.234375 5.53125 -0.671875 C 5.113281 -0.117188 4.570312 0.15625 3.90625 0.15625 C 3.644531 0.15625 3.414062 0.101562 3.21875 0 C 3.03125 -0.09375 2.796875 -0.273438 2.515625 -0.546875 L 2.515625 1.109375 C 2.515625 1.503906 2.578125 1.773438 2.703125 1.921875 C 2.828125 2.066406 3.070312 2.148438 3.4375 2.171875 L 3.4375 2.421875 L 0.21875 2.421875 L 0.21875 2.125 C 0.5 2.082031 0.679688 2.019531 0.765625 1.9375 C 0.847656 1.851562 0.890625 1.691406 0.890625 1.453125 L 0.890625 -4.453125 C 0.890625 -4.691406 0.847656 -4.859375 0.765625 -4.953125 C 0.679688 -5.046875 0.507812 -5.109375 0.25 -5.140625 L 0.25 -5.4375 L 2.5 -5.4375 L 2.5 -4.625 C 2.675781 -4.957031 2.878906 -5.195312 3.109375 -5.34375 C 3.347656 -5.5 3.640625 -5.578125 3.984375 -5.578125 C 4.628906 -5.578125 5.15625 -5.320312 5.5625 -4.8125 C 5.96875 -4.300781 6.171875 -3.632812 6.171875 -2.8125 Z M 4.4375 -2.65625 C 4.4375 -4.15625 4.132812 -4.90625 3.53125 -4.90625 C 3.269531 -4.90625 3.015625 -4.769531 2.765625 -4.5 C 2.597656 -4.320312 2.515625 -4.179688 2.515625 -4.078125 L 2.515625 -1.21875 C 2.703125 -0.738281 3.003906 -0.5 3.421875 -0.5 C 4.097656 -0.5 4.4375 -1.21875 4.4375 -2.65625 Z M 4.4375 -2.65625 "/></g></g></g><g fill="#000000" fill-opacity="1"><g transform="translate(182.141731, 48.652895)"><g><path d="M 5.015625 -1.3125 C 4.628906 -0.757812 4.269531 -0.375 3.9375 -0.15625 C 3.601562 0.0625 3.195312 0.171875 2.71875 0.171875 C 1.988281 0.171875 1.398438 -0.0859375 0.953125 -0.609375 C 0.515625 -1.140625 0.296875 -1.832031 0.296875 -2.6875 C 0.296875 -3.550781 0.519531 -4.25 0.96875 -4.78125 C 1.425781 -5.3125 2.019531 -5.578125 2.75 -5.578125 C 3.425781 -5.578125 3.957031 -5.335938 4.34375 -4.859375 C 4.6875 -4.429688 4.890625 -3.773438 4.953125 -2.890625 L 1.984375 -2.890625 C 2.023438 -2.160156 2.148438 -1.625 2.359375 -1.28125 C 2.585938 -0.882812 2.929688 -0.6875 3.390625 -0.6875 C 3.640625 -0.6875 3.863281 -0.742188 4.0625 -0.859375 C 4.269531 -0.972656 4.492188 -1.175781 4.734375 -1.46875 Z M 3.515625 -3.328125 L 3.515625 -3.5 C 3.484375 -4.082031 3.445312 -4.46875 3.40625 -4.65625 C 3.3125 -5.019531 3.09375 -5.203125 2.75 -5.203125 C 2.46875 -5.203125 2.265625 -5.0625 2.140625 -4.78125 C 2.015625 -4.507812 1.945312 -4.023438 1.9375 -3.328125 Z M 3.515625 -3.328125 "/></g></g></g><g fill="#000000" fill-opacity="1"><g transform="translate(187.03287, 48.652895)"><g><path d="M 4.25 -1.625 C 4.25 -1.101562 4.078125 -0.671875 3.734375 -0.328125 C 3.398438 0.00390625 2.96875 0.171875 2.4375 0.171875 C 2.03125 0.171875 1.609375 0.078125 1.171875 -0.109375 C 1.046875 -0.148438 0.953125 -0.171875 0.890625 -0.171875 C 0.804688 -0.171875 0.707031 -0.0625 0.59375 0.15625 L 0.296875 0.15625 L 0.296875 -1.796875 L 0.625 -1.796875 C 0.875 -0.753906 1.410156 -0.234375 2.234375 -0.234375 C 2.503906 -0.234375 2.71875 -0.300781 2.875 -0.4375 C 3.039062 -0.582031 3.125 -0.769531 3.125 -1 C 3.125 -1.1875 3.035156 -1.359375 2.859375 -1.515625 C 2.691406 -1.679688 2.398438 -1.851562 1.984375 -2.03125 C 1.398438 -2.28125 0.972656 -2.546875 0.703125 -2.828125 C 0.441406 -3.117188 0.3125 -3.460938 0.3125 -3.859375 C 0.3125 -4.347656 0.484375 -4.753906 0.828125 -5.078125 C 1.179688 -5.410156 1.628906 -5.578125 2.171875 -5.578125 C 2.429688 -5.578125 2.738281 -5.515625 3.09375 -5.390625 C 3.257812 -5.335938 3.378906 -5.3125 3.453125 -5.3125 C 3.585938 -5.3125 3.6875 -5.390625 3.75 -5.546875 L 4 -5.546875 L 4 -3.84375 L 3.71875 -3.84375 C 3.5625 -4.28125 3.375 -4.601562 3.15625 -4.8125 C 2.882812 -5.0625 2.59375 -5.1875 2.28125 -5.1875 C 2.050781 -5.1875 1.863281 -5.117188 1.71875 -4.984375 C 1.570312 -4.859375 1.5 -4.695312 1.5 -4.5 C 1.5 -4.300781 1.585938 -4.117188 1.765625 -3.953125 C 1.941406 -3.796875 2.226562 -3.632812 2.625 -3.46875 C 3.21875 -3.21875 3.632812 -2.953125 3.875 -2.671875 C 4.125 -2.390625 4.25 -2.039062 4.25 -1.625 Z M 4.25 -1.625 "/></g></g></g></svg>